ply
format ascii 1.0
comment VTK generated PLY File
obj_info vtkPolyData points and polygons: vtk4.0
element vertex 139
property float x
property float y
property float z
element face 548
property list uchar int vertex_indices
end_header
-0.44369 -0.156127 0.0751035 
-0.406427 -0.143256 0.210492 
-0.454601 -0.0339744 0.139083 
-0.402683 -0.0266817 0.251707 
-0.31975 -0.239993 0.262952 
-0.332166 -0.103959 0.32912 
-0.373535 -0.25975 0.136974 
0.134029 -0.244905 0.392229 
0.262633 -0.285163 0.278266 
0.23542 -0.160033 0.387633 
0.128053 -0.104855 0.452003 
0.101531 -0.36759 0.291108 
0.0312692 -0.183086 0.442875 
-0.00196737 -0.29298 0.380422 
-0.194704 -0.403177 0.151859 
-0.210924 -0.327004 0.275256 
-0.289128 -0.330109 0.183702 
-0.301592 -0.35767 0.063251 
0.185899 0.291004 0.335581 
0.275884 0.319394 0.223144 
0.15231 0.391229 0.232208 
0.294624 0.219285 0.305371 
0.34534 0.312577 0.0952573 
0.230956 0.399877 0.108088 
0.374795 0.217622 0.203515 
0.287003 0.375559 -0.03062 
0.204782 0.406933 -0.125014 
0.163132 0.44407 -0.0108404 
0.0883618 0.449315 -0.127025 
0.100635 0.455673 0.119566 
0.0251787 0.476303 0.00290773 
0.295787 0.317769 -0.193155 
0.150383 0.386904 -0.235127 
-0.329823 -0.167641 -0.30062 
-0.254251 -0.0376848 -0.403609 
-0.19561 -0.220271 -0.380236 
-0.263461 -0.311369 -0.249454 
-0.379648 -0.23802 -0.162735 
-0.420764 -0.100098 -0.20374 
-0.36728 -0.041188 -0.304823 
0.0388569 0.00744539 -0.485339 
0.162031 0.132312 -0.431807 
0.179519 -0.0475692 -0.440162 
0.00968868 0.143452 -0.460344 
0.0492711 0.254446 -0.400372 
0.182207 0.284671 -0.335667 
0.297314 0.024871 -0.371889 
0.31043 0.177589 -0.314451 
-0.210469 0.316941 0.281979 
-0.0751179 0.391145 0.262788 
-0.17178 0.414017 0.157931 
-0.0371849 0.456867 0.136971 
-0.300398 0.337298 0.147342 
-0.118156 0.46095 0.0238278 
-0.234699 0.407015 0.0455406 
-0.162713 -0.413348 -0.163443 
-0.116836 -0.349102 -0.305444 
-0.0108167 -0.424357 -0.216726 
-0.0420123 -0.473369 -0.0646786 
-0.188625 -0.436442 -0.00218891 
-0.296628 -0.355849 -0.0922594 
0.0654144 -0.149764 -0.450375 
-0.0882776 -0.10501 -0.459311 
-0.110355 0.0666136 -0.465802 
0.306666 -0.339406 0.13179 
0.394564 -0.21524 0.167739 
0.374022 -0.288627 0.0136478 
0.346199 -0.115934 0.309373 
0.438562 -0.0474472 0.182423 
0.455168 -0.127782 0.0382125 
0.0716132 0.346159 -0.320341 
0.0134501 0.413289 -0.238619 
-0.0912045 0.216645 -0.416257 
-0.0488013 0.333894 -0.336725 
0.419716 0.214392 0.0830768 
0.395378 0.272404 -0.0402567 
0.45753 0.133739 -0.00431099 
0.447505 0.105844 0.146858 
-0.0832284 0.278376 0.380703 
0.048072 0.351973 0.326772 
-0.222549 0.170479 0.387647 
0.0707086 0.220398 0.420017 
-0.0644203 0.114082 0.458737 
0.0371239 0.423636 0.222147 
-0.0565161 0.458902 -0.115792 
-0.133252 0.397284 -0.23065 
-0.205036 0.424897 -0.0887801 
0.221658 0.149846 0.396894 
-0.192723 0.290727 -0.329451 
-0.230636 0.146804 -0.394395 
-0.333469 0.210486 0.257154 
-0.338608 0.0559373 0.331736 
-0.409042 0.226206 0.105846 
-0.422853 0.0919659 0.199984 
0.0136023 -0.349696 -0.324487 
0.13556 -0.375431 -0.26406 
0.122918 -0.453502 -0.114706 
-0.0387488 -0.256222 -0.404626 
-0.0643025 -0.460531 0.0971875 
0.466364 -0.00104813 -0.0998569 
0.473762 0.00948004 0.0549446 
0.428752 -0.181731 -0.114034 
0.416574 0.168275 -0.165107 
0.42349 -0.0803935 -0.211329 
0.398783 0.0459801 -0.261095 
0.295068 -0.335486 -0.157914 
0.244037 -0.40738 0.0120029 
0.0835514 -0.46968 0.0451602 
-0.0673236 -0.397749 0.262958 
-0.123697 -0.29494 0.358157 
-0.225345 -0.208923 0.36926 
0.240506 -0.261191 -0.315229 
0.357414 -0.182183 -0.252911 
0.283876 -0.122209 -0.365372 
0.365658 -0.0603665 -0.300943 
0.103468 -0.27504 -0.377409 
0.183 -0.411594 0.158653 
0.0496891 -0.443504 0.177248 
-0.472704 -0.0532336 0.0176138 
-0.464502 0.0828663 0.0306149 
-0.448651 0.120597 -0.126359 
-0.464188 -0.0100066 -0.099547 
-0.429489 0.210276 -0.0352514 
-0.0941519 -0.187098 0.432592 
-0.0183784 -0.0583755 0.477863 
-0.203439 -0.0329546 0.43853 
0.102133 0.0553981 0.464436 
0.246684 -0.0159248 0.410703 
0.362813 0.0773697 0.301525 
0.180885 -0.177446 -0.404559 
-0.277889 0.336972 -0.199079 
-0.33824 0.329895 -0.0267707 
-0.322222 0.218215 -0.291875 
-0.386778 0.237982 -0.160385 
-0.392399 -0.265183 -0.00791237 
-0.445471 -0.142355 -0.0667509 
-0.397683 0.141925 -0.235439 
-0.420345 0.0317964 -0.225275 
-0.346647 0.0792431 -0.325876 
3 0 1 2 
3 3 2 1 
3 4 5 1 
3 1 5 3 
3 1 0 6 
3 6 4 1 
3 7 8 9 
3 7 9 10 
3 8 7 11 
3 7 12 13 
3 13 11 7 
3 10 12 7 
3 14 15 16 
3 17 14 16 
3 15 4 16 
3 16 6 17 
3 16 4 6 
3 18 19 20 
3 19 18 21 
3 22 23 19 
3 24 22 19 
3 19 23 20 
3 19 21 24 
3 25 26 27 
3 28 27 26 
3 29 27 30 
3 27 29 23 
3 27 28 30 
3 27 23 25 
3 31 32 26 
3 26 32 28 
3 31 26 25 
3 33 34 35 
3 36 33 35 
3 33 36 37 
3 33 37 38 
3 34 33 39 
3 38 39 33 
3 40 41 42 
3 41 40 43 
3 41 44 45 
3 44 41 43 
3 46 42 41 
3 41 47 46 
3 45 47 41 
3 48 49 50 
3 50 49 51 
3 50 52 48 
3 53 50 51 
3 54 52 50 
3 50 53 54 
3 55 56 57 
3 57 58 55 
3 55 36 56 
3 59 60 55 
3 55 58 59 
3 36 55 60 
3 61 40 42 
3 40 62 63 
3 63 43 40 
3 62 40 61 
3 64 65 8 
3 66 65 64 
3 8 65 67 
3 68 67 65 
3 69 68 65 
3 69 65 66 
3 70 71 32 
3 70 32 45 
3 71 28 32 
3 45 32 31 
3 72 73 44 
3 72 44 43 
3 44 73 70 
3 45 44 70 
3 74 75 22 
3 74 22 24 
3 76 74 77 
3 24 77 74 
3 74 76 75 
3 78 49 48 
3 79 49 78 
3 48 80 78 
3 81 79 78 
3 82 78 80 
3 78 82 81 
3 51 49 83 
3 49 79 83 
3 30 84 53 
3 30 28 84 
3 85 84 71 
3 28 71 84 
3 86 84 85 
3 53 84 86 
3 30 51 29 
3 83 29 51 
3 83 20 29 
3 23 29 20 
3 53 51 30 
3 20 79 18 
3 81 18 79 
3 87 21 18 
3 87 18 81 
3 88 73 72 
3 88 72 89 
3 63 89 72 
3 72 43 63 
3 90 80 48 
3 48 52 90 
3 80 90 91 
3 90 52 92 
3 93 91 90 
3 92 93 90 
3 57 56 94 
3 95 96 57 
3 96 58 57 
3 57 94 95 
3 97 94 56 
3 97 56 35 
3 35 56 36 
3 98 14 59 
3 17 59 14 
3 59 58 98 
3 60 59 17 
3 99 100 69 
3 99 69 101 
3 76 99 102 
3 100 99 76 
3 103 104 99 
3 101 103 99 
3 99 104 102 
3 96 95 105 
3 105 106 96 
3 107 96 106 
3 96 107 58 
3 15 14 108 
3 14 98 108 
3 15 109 110 
3 108 109 15 
3 15 110 4 
3 71 70 73 
3 95 111 105 
3 112 105 111 
3 112 101 105 
3 106 105 66 
3 105 101 66 
3 71 73 85 
3 42 46 113 
3 113 46 114 
3 104 114 46 
3 104 46 47 
3 94 97 115 
3 61 115 97 
3 35 62 97 
3 61 97 62 
3 94 115 95 
3 79 20 83 
3 8 116 64 
3 64 116 106 
3 64 106 66 
3 116 8 11 
3 106 116 107 
3 11 117 116 
3 107 116 117 
3 118 2 119 
3 93 119 2 
3 120 121 119 
3 119 122 120 
3 119 121 118 
3 119 93 92 
3 92 122 119 
3 111 95 115 
3 123 124 125 
3 123 12 124 
3 123 109 13 
3 123 110 109 
3 13 12 123 
3 125 110 123 
3 124 126 82 
3 126 124 10 
3 82 125 124 
3 10 124 12 
3 67 9 8 
3 127 9 67 
3 67 128 127 
3 67 68 128 
3 115 129 111 
3 129 115 61 
3 113 129 42 
3 129 61 42 
3 111 129 113 
3 130 86 85 
3 130 131 86 
3 86 54 53 
3 54 86 131 
3 130 132 133 
3 133 131 130 
3 130 85 88 
3 132 130 88 
3 9 127 10 
3 85 73 88 
3 2 118 0 
3 2 3 93 
3 112 113 114 
3 113 112 111 
3 114 103 112 
3 101 112 103 
3 35 34 62 
3 37 60 134 
3 60 37 36 
3 134 135 37 
3 38 37 135 
3 125 80 91 
3 80 125 82 
3 52 54 131 
3 131 92 52 
3 127 87 126 
3 10 127 126 
3 81 126 87 
3 81 82 126 
3 133 136 120 
3 137 120 136 
3 120 122 133 
3 120 137 121 
3 138 137 136 
3 136 132 138 
3 133 132 136 
3 138 34 39 
3 39 137 138 
3 89 34 138 
3 138 132 89 
3 91 5 125 
3 5 110 125 
3 3 5 91 
3 5 4 110 
3 31 47 45 
3 13 109 108 
3 108 11 13 
3 122 131 133 
3 22 75 25 
3 25 23 22 
3 117 98 107 
3 117 108 98 
3 58 107 98 
3 88 89 132 
3 135 118 121 
3 121 137 38 
3 135 121 38 
3 87 127 128 
3 38 137 39 
3 89 63 34 
3 63 62 34 
3 77 128 68 
3 128 77 24 
3 100 76 77 
3 68 100 77 
3 108 117 11 
3 128 21 87 
3 3 91 93 
3 0 118 135 
3 114 104 103 
3 134 60 17 
3 17 6 134 
3 135 134 0 
3 6 0 134 
3 24 21 128 
3 68 69 100 
3 66 101 69 
3 102 75 76 
3 92 131 122 
3 47 31 102 
3 75 102 31 
3 25 75 31 
3 47 102 104 
3 134 17 6 
3 134 0 135 
3 134 6 0 
3 134 60 17 
3 134 135 37 
3 134 37 60 
3 111 105 95 
3 111 129 113 
3 111 95 115 
3 111 113 112 
3 111 112 105 
3 111 115 129 
3 0 118 135 
3 0 2 118 
3 0 1 2 
3 0 6 1 
3 137 39 38 
3 137 138 39 
3 137 38 121 
3 137 136 138 
3 137 121 120 
3 137 120 136 
3 117 11 108 
3 117 116 11 
3 117 98 107 
3 117 107 116 
3 117 108 98 
3 36 60 37 
3 36 33 35 
3 36 55 60 
3 36 35 56 
3 36 56 55 
3 36 37 33 
3 107 58 96 
3 107 98 58 
3 107 96 106 
3 107 106 116 
3 128 77 24 
3 128 68 77 
3 128 24 21 
3 128 67 68 
3 128 127 67 
3 128 21 87 
3 128 87 127 
3 69 99 100 
3 69 66 101 
3 69 101 99 
3 69 68 65 
3 69 65 66 
3 69 100 68 
3 76 99 102 
3 76 74 77 
3 76 100 99 
3 76 77 100 
3 76 75 74 
3 76 102 75 
3 4 5 1 
3 4 6 16 
3 4 1 6 
3 4 16 15 
3 4 15 110 
3 4 110 5 
3 92 131 122 
3 92 122 119 
3 92 90 52 
3 92 93 90 
3 92 52 131 
3 92 119 93 
3 135 118 121 
3 135 121 38 
3 135 38 37 
3 3 91 93 
3 3 1 5 
3 3 2 1 
3 3 5 91 
3 3 93 2 
3 103 104 99 
3 103 99 101 
3 103 114 104 
3 103 101 112 
3 103 112 114 
3 31 47 45 
3 31 26 25 
3 31 45 32 
3 31 32 26 
3 31 75 102 
3 31 102 47 
3 31 25 75 
3 20 19 23 
3 20 23 29 
3 20 18 19 
3 20 29 83 
3 20 79 18 
3 20 83 79 
3 47 41 45 
3 47 46 41 
3 47 102 104 
3 47 104 46 
3 102 99 104 
3 82 126 81 
3 82 124 126 
3 82 125 124 
3 82 81 78 
3 82 78 80 
3 82 80 125 
3 104 114 46 
3 21 18 87 
3 21 19 18 
3 21 24 19 
3 6 17 16 
3 75 22 74 
3 75 25 22 
3 23 19 22 
3 23 27 29 
3 23 25 27 
3 23 22 25 
3 10 7 9 
3 10 126 124 
3 10 9 127 
3 10 12 7 
3 10 127 126 
3 10 124 12 
3 53 84 86 
3 53 30 84 
3 53 50 51 
3 53 86 54 
3 53 54 50 
3 53 51 30 
3 58 98 59 
3 58 59 55 
3 58 57 96 
3 58 55 57 
3 93 91 90 
3 93 119 2 
3 68 67 65 
3 68 100 77 
3 132 88 89 
3 132 130 88 
3 132 89 138 
3 132 133 130 
3 132 138 136 
3 132 136 133 
3 62 61 97 
3 62 97 35 
3 62 35 34 
3 62 34 63 
3 62 40 61 
3 62 63 40 
3 38 39 33 
3 38 33 37 
3 122 131 133 
3 122 120 119 
3 122 133 120 
3 81 87 18 
3 81 126 87 
3 81 18 79 
3 81 79 78 
3 110 125 5 
3 110 15 109 
3 110 123 125 
3 110 109 123 
3 43 72 44 
3 43 44 41 
3 43 41 40 
3 43 63 72 
3 43 40 63 
3 25 26 27 
3 28 30 27 
3 28 27 26 
3 28 84 30 
3 28 71 84 
3 28 26 32 
3 28 32 71 
3 24 77 74 
3 24 74 22 
3 24 22 19 
3 108 109 15 
3 108 11 13 
3 108 13 109 
3 108 14 98 
3 108 15 14 
3 61 115 97 
3 61 42 129 
3 61 40 42 
3 61 129 115 
3 131 130 133 
3 131 52 54 
3 131 86 130 
3 131 54 86 
3 101 66 105 
3 101 105 112 
3 66 106 105 
3 66 64 106 
3 66 65 64 
3 7 8 9 
3 7 11 8 
3 7 13 11 
3 7 12 13 
3 16 14 15 
3 16 17 14 
3 27 30 29 
3 33 34 35 
3 33 39 34 
3 41 44 45 
3 41 46 42 
3 41 42 40 
3 50 48 49 
3 50 49 51 
3 50 52 48 
3 50 54 52 
3 55 59 60 
3 55 56 57 
3 65 67 8 
3 65 8 64 
3 32 45 70 
3 32 70 71 
3 44 72 73 
3 44 70 45 
3 44 73 70 
3 78 49 48 
3 78 79 49 
3 78 48 80 
3 49 83 51 
3 49 79 83 
3 84 85 86 
3 84 71 85 
3 29 30 51 
3 29 51 83 
3 72 89 88 
3 72 63 89 
3 72 88 73 
3 90 48 52 
3 90 91 80 
3 90 80 48 
3 57 95 96 
3 57 94 95 
3 57 56 94 
3 56 35 97 
3 56 97 94 
3 59 98 14 
3 59 17 60 
3 59 14 17 
3 96 105 106 
3 96 95 105 
3 70 73 71 
3 71 73 85 
3 46 113 42 
3 46 114 113 
3 97 115 94 
3 94 115 95 
3 64 116 106 
3 64 8 116 
3 116 8 11 
3 119 121 118 
3 119 120 121 
3 119 118 2 
3 123 124 125 
3 123 12 124 
3 123 109 13 
3 123 13 12 
3 67 9 8 
3 67 127 9 
3 129 42 113 
3 86 85 130 
3 130 85 88 
3 73 88 85 
3 112 113 114 
3 80 91 125 
3 126 127 87 
3 120 133 136 
3 138 89 34 
3 138 34 39 
3 5 125 91 
3 34 89 63 
