<?xml version="1.0" encoding="UTF-8" standalone="no"?>
<!-- Created with Inkscape (http://www.inkscape.org/) -->

<svg
   xmlns:dc="http://purl.org/dc/elements/1.1/"
   xmlns:cc="http://creativecommons.org/ns#"
   xmlns:rdf="http://www.w3.org/1999/02/22-rdf-syntax-ns#"
   xmlns:svg="http://www.w3.org/2000/svg"
   xmlns="http://www.w3.org/2000/svg"
   xmlns:xlink="http://www.w3.org/1999/xlink"
   xmlns:sodipodi="http://sodipodi.sourceforge.net/DTD/sodipodi-0.dtd"
   xmlns:inkscape="http://www.inkscape.org/namespaces/inkscape"
   width="768.46692"
   height="164.19327"
   id="svg2"
   version="1.1"
   inkscape:version="0.91 r13725"
   sodipodi:docname="SimMedTK-logo.svg">
  <defs
     id="defs4">
    <linearGradient
       inkscape:collect="always"
       id="linearGradient4485">
      <stop
         style="stop-color:#787878;stop-opacity:1"
         offset="0"
         id="stop4487" />
      <stop
         id="stop4493"
         offset="0.23576376"
         style="stop-color:#747474;stop-opacity:0.76078433" />
      <stop
         style="stop-color:#595959;stop-opacity:0.627451"
         offset="0.36731616"
         id="stop4495" />
      <stop
         id="stop4497"
         offset="0.52120763"
         style="stop-color:#414141;stop-opacity:0.4745098;" />
      <stop
         style="stop-color:#2c2c2c;stop-opacity:0.24705882"
         offset="0.74708062"
         id="stop4499" />
      <stop
         style="stop-color:#000000;stop-opacity:0"
         offset="1"
         id="stop4489" />
    </linearGradient>
    <linearGradient
       inkscape:collect="always"
       id="linearGradient4460">
      <stop
         style="stop-color:#7e7e7e;stop-opacity:1"
         offset="0"
         id="stop4462" />
      <stop
         id="stop4466"
         offset="0.33079433"
         style="stop-color:#898989;stop-opacity:1" />
      <stop
         style="stop-color:#848484;stop-opacity:1"
         offset="0.4912852"
         id="stop4470" />
      <stop
         style="stop-color:#767676;stop-opacity:1"
         offset="0.70200968"
         id="stop4468" />
      <stop
         style="stop-color:#838383;stop-opacity:1"
         offset="1"
         id="stop4464" />
    </linearGradient>
    <linearGradient
       id="linearGradient4430"
       inkscape:collect="always">
      <stop
         id="stop4454"
         offset="0"
         style="stop-color:#a1a1a1;stop-opacity:1" />
      <stop
         id="stop4456"
         offset="1"
         style="stop-color:#f2f2f2;stop-opacity:1" />
    </linearGradient>
    <linearGradient
       inkscape:collect="always"
       id="linearGradient4418">
      <stop
         style="stop-color:#ececec;stop-opacity:1"
         offset="0"
         id="stop4420" />
      <stop
         id="stop4438"
         offset="0.21843562"
         style="stop-color:#b5b5b5;stop-opacity:1" />
      <stop
         id="stop4426"
         offset="0.49246445"
         style="stop-color:#929292;stop-opacity:1" />
      <stop
         style="stop-color:#b3b3b3;stop-opacity:1"
         offset="0.69688219"
         id="stop4428" />
      <stop
         style="stop-color:#c5c5c5;stop-opacity:1"
         offset="1"
         id="stop4422" />
    </linearGradient>
    <marker
       inkscape:stockid="Arrow1Mend"
       orient="auto"
       refY="0"
       refX="0"
       id="Arrow1Mend"
       style="overflow:visible">
      <path
         id="path3879"
         d="M 0,0 5,-5 -12.5,0 5,5 0,0 Z"
         style="fill-rule:evenodd;stroke:#000000;stroke-width:1pt;marker-start:none"
         transform="matrix(-0.4,0,0,-0.4,-4,0)"
         inkscape:connector-curvature="0" />
    </marker>
    <marker
       style="overflow:visible"
       id="Arrow1Mend-2"
       refX="0"
       refY="0"
       orient="auto"
       inkscape:stockid="Arrow1Mend">
      <path
         inkscape:connector-curvature="0"
         transform="matrix(-0.4,0,0,-0.4,-4,0)"
         style="fill-rule:evenodd;stroke:#000000;stroke-width:1pt;marker-start:none"
         d="M 0,0 5,-5 -12.5,0 5,5 0,0 Z"
         id="path3879-7" />
    </marker>
    <marker
       inkscape:stockid="Arrow1Mend"
       orient="auto"
       refY="0"
       refX="0"
       id="Arrow1Mend-2-6"
       style="overflow:visible">
      <path
         id="path3879-7-2"
         d="M 0,0 5,-5 -12.5,0 5,5 0,0 Z"
         style="fill-rule:evenodd;stroke:#000000;stroke-width:1pt;marker-start:none"
         transform="matrix(-0.4,0,0,-0.4,-4,0)"
         inkscape:connector-curvature="0" />
    </marker>
    <marker
       style="overflow:visible"
       id="Arrow1Mend-3"
       refX="0"
       refY="0"
       orient="auto"
       inkscape:stockid="Arrow1Mend">
      <path
         transform="matrix(-0.4,0,0,-0.4,-4,0)"
         style="fill-rule:evenodd;stroke:#000000;stroke-width:1pt;marker-start:none"
         d="M 0,0 5,-5 -12.5,0 5,5 0,0 Z"
         id="path3879-0"
         inkscape:connector-curvature="0" />
    </marker>
    <linearGradient
       inkscape:collect="always"
       xlink:href="#linearGradient4418"
       id="linearGradient4424"
       x1="14.260432"
       y1="137.29317"
       x2="734.13086"
       y2="62.541885"
       gradientUnits="userSpaceOnUse" />
    <radialGradient
       inkscape:collect="always"
       xlink:href="#linearGradient4430"
       id="radialGradient4436"
       cx="152.10765"
       cy="246.97377"
       fx="152.10765"
       fy="246.97377"
       r="235.38449"
       gradientTransform="matrix(0.9869954,-0.24147399,0.08181502,0.33440886,-16.248799,95.227372)"
       gradientUnits="userSpaceOnUse" />
    <linearGradient
       inkscape:collect="always"
       xlink:href="#linearGradient4460"
       id="linearGradient4476"
       gradientUnits="userSpaceOnUse"
       x1="152.71005"
       y1="133.16454"
       x2="443.68704"
       y2="115.66454" />
    <linearGradient
       inkscape:collect="always"
       xlink:href="#linearGradient4485"
       id="linearGradient4491"
       x1="172.51085"
       y1="109.18848"
       x2="460.2832"
       y2="109.18848"
       gradientUnits="userSpaceOnUse" />
  </defs>
  <sodipodi:namedview
     id="base"
     pagecolor="#ffffff"
     bordercolor="#666666"
     borderopacity="1.0"
     inkscape:pageopacity="0.0"
     inkscape:pageshadow="2"
     inkscape:zoom="0.9899495"
     inkscape:cx="326.00554"
     inkscape:cy="107.18886"
     inkscape:document-units="px"
     inkscape:current-layer="layer1"
     showgrid="false"
     inkscape:window-width="1631"
     inkscape:window-height="1140"
     inkscape:window-x="41"
     inkscape:window-y="101"
     inkscape:window-maximized="0"
     showguides="true"
     inkscape:guide-bbox="true"
     fit-margin-top="10"
     fit-margin-left="10"
     fit-margin-right="10"
     fit-margin-bottom="10" />
  <metadata
     id="metadata7">
    <rdf:RDF>
      <cc:Work
         rdf:about="">
        <dc:format>image/svg+xml</dc:format>
        <dc:type
           rdf:resource="http://purl.org/dc/dcmitype/StillImage" />
        <dc:title></dc:title>
      </cc:Work>
    </rdf:RDF>
  </metadata>
  <g
     inkscape:label="Layer 1"
     inkscape:groupmode="layer"
     id="layer1"
     transform="translate(10.485365,-11.76087)">
    <path
       inkscape:connector-curvature="0"
       style="fill:none;fill-opacity:1;fill-rule:evenodd;stroke:#000000;stroke-width:1;stroke-linecap:butt;stroke-linejoin:miter;stroke-miterlimit:4;stroke-dasharray:none;stroke-opacity:1"
       d="m 392.26283,22.26087 c -111.78571,0 -333.743196,18.70479 -374.287111,23.57032 -8.3935675,2.24905 -14.661084,7.64877 -17.857422,13.57226 0,0 45.001116,52.14258 76.429688,72.14258 31.428575,20 82.857135,32.1437 99.999995,33.57227 17.14286,1.42857 79.88365,-2.14314 113.45508,-2.85743 33.57143,-0.71428 160.4043,0.87891 160.4043,0.87891 0,0 10.09452,-7.89909 18.07422,-17.2207 21.38524,-14.58902 73.58968,-17.73054 108.0664,-20.08789 40.79883,-2.78964 102.16422,7.82253 142.38086,18.15429 L 747.26283,131.54603 686.54798,29.40345 c 0,0 -182.49944,-7.14258 -294.28515,-7.14258 z m 226.25585,30.10352 c 9.59646,0 11.36427,12.12328 12.62696,22.98242 1.26269,10.85914 -4.03969,20.4545 -16.41406,20.70703 -12.37437,0.25254 -147.48243,5.30274 -147.48243,5.30274 l -14.64648,-8.33203 c 0,0 -125.2606,0.25195 -138.39258,0.25195 -3.54454,0 -8.08008,-4.04065 -8.08008,-10.10156 0,-3.283 0.25196,-3.44396 0.25196,-6.56641 0,-5.42436 5.30411,-9.0918 8.08203,-9.0918 l 27.27344,0 7.57617,-5.30273 103.28906,0.25195 12.62695,-9.34375 c 0,0 143.69261,-0.75781 153.28906,-0.75781 z"
       id="path4300" />
    <g
       id="g14573"
       transform="translate(0,-40)" />
    <path
       id="path4295"
       d="m 392.26283,22.26087 c -111.78571,0 -333.743196,18.70479 -374.287111,23.57032 -8.3935675,2.24905 -14.661084,7.64877 -17.857422,13.57226 0,0 45.001116,52.14258 76.429688,72.14258 31.428575,20 82.857135,32.1437 99.999995,33.57227 17.14286,1.42857 79.88365,-2.14314 113.45508,-2.85743 33.57143,-0.71428 160.4043,0.87891 160.4043,0.87891 0,0 10.09452,-7.89909 18.07422,-17.2207 21.38524,-14.58902 73.58968,-17.73054 108.0664,-20.08789 40.79883,-2.78964 102.16422,7.82253 142.38086,18.15429 L 747.26283,131.54603 686.54798,29.40345 c 0,0 -182.49944,-7.14258 -294.28515,-7.14258 z m 226.25585,30.10352 c 9.59646,0 11.36427,12.12328 12.62696,22.98242 1.26269,10.85914 -4.03969,20.4545 -16.41406,20.70703 -12.37437,0.25254 -147.48243,5.30274 -147.48243,5.30274 l -14.64648,-8.33203 c 0,0 -125.2606,0.25195 -138.39258,0.25195 -3.54454,0 -8.08008,-4.04065 -8.08008,-10.10156 0,-3.283 0.25196,-3.44396 0.25196,-6.56641 0,-5.42436 5.30411,-9.0918 8.08203,-9.0918 l 27.27344,0 7.57617,-5.30273 103.28906,0.25195 12.62695,-9.34375 c 0,0 143.69261,-0.75781 153.28906,-0.75781 z"
       style="fill:url(#linearGradient4424);fill-opacity:1;fill-rule:evenodd;stroke:none;stroke-width:1px;stroke-linecap:butt;stroke-linejoin:miter;stroke-opacity:1"
       inkscape:connector-curvature="0" />
    <path
       style="fill:url(#radialGradient4436);fill-opacity:1;fill-rule:evenodd;stroke:none;stroke-width:1px;stroke-linecap:butt;stroke-linejoin:miter;stroke-opacity:1"
       d="M 17.081188,46.094859 C 9.1396997,48.478664 3.199267,53.693761 0.118297,59.403453 c 0,-10e-7 45.001116,52.142577 76.429688,72.142577 31.428575,20 82.857135,32.1437 99.999995,33.57227 17.14286,1.42857 79.88365,-2.14314 113.45508,-2.85743 33.57143,-0.71428 160.4043,0.87891 160.4043,0.87891 0,0 10.09452,-7.89909 18.07422,-17.2207 0.0529,-0.0361 0.11269,-0.0695 0.16601,-0.10547 -63.50684,0.0208 -259.88492,0.1476 -289.29297,1 -11.4323,0.33137 -23.89729,-2.10904 -36.37866,-6.09109 C 117.40907,132.56568 91.773383,117.94019 74.803844,107.41908 49.550027,91.76172 26.317092,60.445979 17.225719,46.303843 c -0.04489,-0.06983 -0.09741,-0.139277 -0.144531,-0.208984 z"
       id="path4290"
       inkscape:connector-curvature="0"
       sodipodi:nodetypes="ccssscccssssc" />
    <text
       transform="matrix(1,0,0.07992674,1,0,0)"
       sodipodi:linespacing="125%"
       id="text4472"
       y="141.08685"
       x="296.26447"
       style="font-style:normal;font-variant:normal;font-weight:normal;font-stretch:normal;font-size:6.85363245px;line-height:125%;font-family:Sans;-inkscape-font-specification:'Sans, Normal';text-align:center;letter-spacing:0px;word-spacing:0px;writing-mode:lr-tb;text-anchor:middle;fill:url(#linearGradient4476);fill-opacity:1;stroke:none;stroke-width:1px;stroke-linecap:butt;stroke-linejoin:miter;stroke-opacity:1"
       xml:space="preserve"><tspan
         style="font-style:normal;font-variant:normal;font-weight:300;font-stretch:normal;font-size:54.8290596px;line-height:125%;font-family:'Hiragino Kaku Gothic Pro';-inkscape-font-specification:'Hiragino Kaku Gothic Pro, Light';text-align:center;writing-mode:lr-tb;text-anchor:middle;fill:url(#linearGradient4476);fill-opacity:1;stroke:none;stroke-opacity:1"
         y="141.08685"
         x="296.26447"
         id="tspan4474"
         sodipodi:role="line">SimMedTK</tspan></text>
    <path
       style="font-style:normal;font-variant:normal;font-weight:normal;font-stretch:normal;font-size:6.85363245px;line-height:125%;font-family:Sans;-inkscape-font-specification:'Sans, Normal';text-align:center;letter-spacing:0px;word-spacing:0px;writing-mode:lr-tb;text-anchor:middle;fill:url(#linearGradient4491);fill-opacity:1;stroke:none;stroke-width:1px;stroke-linecap:butt;stroke-linejoin:miter;stroke-opacity:1"
       d="m 183.68164,88.613281 c -3.93143,0 -7.14127,0.962552 -9.41406,2.667969 -1.30662,1.802054 -1.92608,4.063287 -1.7168,6.681641 0.30676,3.838029 2.24019,6.745049 5.79297,8.664059 1.94745,1.04176 4.147,1.80871 7.6582,2.52149 6.75264,1.48038 7.3691,1.64575 9.26172,2.6875 2.17553,1.15141 3.43371,3.18056 3.64844,5.86718 0.22992,2.87659 -0.84907,5.1056 -3.00391,6.50391 -1.49036,2.34119 -4.54338,3.66406 -8.8164,3.66406 -4.05735,0 -7.45485,-1.37072 -9.45703,-3.7832 -1.26974,-1.48038 -1.75993,-2.79594 -2.13477,-5.42773 l -2.2793,0.29101 c 0.68493,2.47546 1.41309,3.97101 2.71289,5.55078 2.79384,3.3994 7.49001,5.20703 13.63086,5.20703 4.29401,0 7.65075,-0.91824 9.98828,-2.63867 1.4063,-1.93975 2.0332,-4.4485 1.79102,-7.47851 -0.50835,-6.36017 -4.28343,-9.70417 -13.20508,-11.56836 -6.4149,-1.37073 -6.46946,-1.37149 -7.99805,-1.97461 -3.34008,-1.3159 -5.03774,-3.3442 -5.26562,-6.195314 -0.20068,-2.510789 0.89774,-4.564737 2.91016,-5.876954 1.40531,-2.224644 4.30845,-3.580078 8.08789,-3.580078 3.56389,0 6.44808,1.098137 8.36914,3.181641 1.14254,1.261068 1.66928,2.357619 2.2832,4.550781 l 2.02344,-0.292968 c -0.62093,-1.755918 -1.26151,-2.894777 -2.34766,-4.177735 -2.73024,-3.289743 -7.09145,-5.044922 -12.51953,-5.044922 z m 236.80859,0.330078 c -1.78744,0.274146 -3.25936,0.382813 -6.43945,0.382813 l -21.38281,0 c -1.76707,0 -2.97801,-0.04525 -4.10156,-0.138672 l 0.18945,2.361328 c 1.78745,-0.274145 3.47715,-0.384765 6.27344,-0.384766 l 8.55468,0 2.52735,31.636718 c 0.20597,2.57697 0.24976,4.49561 0.0566,6.19531 l 2.73242,0 c -0.21802,-1.20554 -0.37271,-2.45606 -0.51172,-4.19531 l -2.52929,-31.636718 2.16015,0 -0.16015,-2 8.49804,0 c 1.86135,0 3.16292,0.04781 4.32227,0.140626 l -0.18946,-2.361329 z m -212.49804,0.382813 0.23047,2.880859 3.1582,0 -0.23047,-2.880859 -3.1582,0 z m 64.67383,0 c 0.23504,1.321731 0.40303,2.70126 0.54882,4.52539 l 2.29102,28.675778 c 0.22788,2.85111 0.24691,4.44008 0.0801,6.46875 l 2.56445,0 c -0.21964,-1.23846 -0.38145,-2.59448 -0.53125,-4.46875 l -1.875,-23.46679 c -0.10517,-1.315901 -0.59629,-4.714619 -0.94922,-7.072269 1.30907,3.344573 2.0471,5.044298 3.00977,6.798829 l 0.0918,0.17187 -0.15234,-1.898433 c -0.10517,-1.315898 -0.59629,-4.714616 -0.94922,-7.072266 1.30907,3.344573 2.0471,5.044298 3.00977,6.798828 l 12.97461,24.453121 c 1.29378,2.46731 2.10215,4.33031 2.49023,5.75586 l 2.32227,0 c 0.27704,-1.06305 0.64291,-2.18037 1.19726,-3.70117 l 9.21875,-24.61914 c 0.86208,-2.24799 1.45365,-4.439507 1.82227,-6.687499 -0.0283,1.603577 0.0109,3.410096 0.0742,4.962891 l 0.10351,-0.275391 c 0.86208,-2.247991 1.45365,-4.439508 1.82227,-6.6875 -0.0396,2.247992 0.0316,5.206974 0.1543,6.742188 l 1.90234,23.796871 c 0.21035,2.6318 0.2581,4.60457 0.0781,6.46875 l 2.56836,0 c -0.21916,-1.21675 -0.37702,-2.51476 -0.5332,-4.46875 l -2.29297,-28.675778 c -0.22788,-2.851111 -0.24448,-4.441886 -0.082,-6.52539 l -4.69141,0 c -0.25114,1.036365 -0.5892,2.149474 -1.04492,3.429687 l -11.07422,30.208981 -0.74804,-1.41601 -1.25196,3.41601 -15.95703,-30.208981 c -0.96705,-1.809359 -1.78174,-3.784815 -2.24219,-5.429687 l -3.94921,0 z m 106.5625,0 c 0.21387,1.271586 0.36938,2.544417 0.50586,4.251953 l 0.58789,7.345705 c 0.10079,1.26107 0.13996,1.75484 0.39648,2.90625 l 0.11914,0.82226 c -0.76556,-1.06682 -1.63627,-1.98788 -2.59961,-2.76953 l 0.084,1.04102 c 0.10079,1.26107 0.13996,1.75484 0.39648,2.90625 l 0.11914,0.82226 c -2.71486,-3.7832 -6.71368,-5.81054 -11.70312,-5.81054 -3.04997,0 -5.62382,0.8255 -7.6211,2.33789 -2.03965,2.6581 -3.00742,6.42446 -2.64062,11.01367 0.76252,9.54026 6.38054,15.35156 14.82422,15.35156 3.08069,0 5.55819,-0.73442 7.53515,-2.23633 0.40079,-0.51537 0.77777,-1.07324 1.12305,-1.68554 -0.009,0.23302 -0.004,0.46753 -0.006,0.70312 0.75113,-0.76232 1.41847,-1.66148 2.00586,-2.70312 -0.0352,0.93209 -0.0106,1.91989 0.0508,2.6875 l 0.21289,2.68554 2.00977,0 c -0.2121,-1.25063 -0.36465,-2.48898 -0.50977,-4.30468 L 381.787,95.523438 c -0.19282,-2.412479 -0.21018,-4.004104 -0.11133,-6.197266 l -2.44726,0 z m 48.61523,0 c 0.22409,1.238292 0.37958,2.489367 0.51172,4.142578 l 2.34765,29.38672 c 0.20159,2.52214 0.24148,4.38609 0.0527,6.14062 l 2.67187,0 c -0.21083,-1.16403 -0.36213,-2.39123 -0.50195,-4.14062 l -0.71484,-8.93555 5.91015,-6.30664 0.0606,0.0703 1.93945,-2.07031 14.27344,16.66797 c 1.6886,1.91902 2.73416,3.34412 3.61133,4.71484 l 2.27734,0 c -0.78466,-0.82611 -1.79511,-1.96252 -3.54882,-3.97461 l -15.82422,-18.25976 10.90039,-11.787111 c 0.15134,-0.164487 0.75649,-0.823482 1.66015,-1.865234 0.65143,-0.767607 1.41356,-1.534844 2.22071,-2.412109 0.40357,-0.438633 0.40203,-0.439 1.31445,-1.371094 l -5.70117,0 c -0.534,0.708367 -1.22458,1.504206 -2.1875,2.550781 l -15.32617,16.779297 -0.0137,-0.17383 -1.98632,2.17383 -1.21485,-15.1875 c -0.21473,-2.686624 -0.24147,-4.388048 -0.0527,-6.142578 l -2.67969,0 z m -92.94922,11.404298 c -3.04531,0 -5.62797,0.84643 -7.64062,2.38281 -2.08425,2.70059 -3.08542,6.52283 -2.7168,11.13477 0.75814,9.48542 6.66918,15.51562 15.27734,15.51562 3.32925,0 6.12072,-0.92194 8.33594,-2.67969 0.73854,-0.93941 1.27064,-1.93426 1.93164,-3.70898 l -2.94726,-1.14258 c -0.62097,1.09401 -1.41769,1.96852 -2.38672,2.61914 -1.53686,2.24399 -3.93951,3.4043 -7.16016,3.4043 -3.28974,0 -6.08194,-1.31604 -8.0293,-3.72852 -1.63814,-1.97384 -2.34854,-4.00223 -2.80664,-7.67578 l 2.31446,0 c -0.11693,-0.61485 -0.22301,-1.26671 -0.31446,-2 l 20.74219,0 c -0.14783,-0.84835 -0.32662,-1.90518 -0.38086,-2.22265 -1.68381,-7.3471 -7.1458,-11.89844 -14.21875,-11.89844 z m -100.87695,0.11133 c -2.49476,0 -4.62994,0.61551 -6.26563,1.77734 -0.49547,0.64193 -0.80996,1.16572 -1.10156,1.81445 -0.0123,-0.44926 -0.0162,-0.54506 -0.0215,-0.85156 -0.0364,0.038 -0.0777,0.0707 -0.11329,0.10938 -1.00455,1.15141 -1.44627,1.81009 -1.86523,2.74218 -0.0284,-1.04175 -0.0269,-1.70046 -0.0488,-1.97461 l -0.24023,-3.01562 -2.05664,0 c 0.20121,1.19032 0.35274,2.42812 0.49414,4.19726 l 1.37109,17.16016 c 0.20597,2.57697 0.22967,4.22147 0.11328,6.19531 l 2.46485,0 c -0.21401,-1.26887 -0.38577,-2.52166 -0.51953,-4.19531 l -0.85938,-10.74609 c -0.11394,-1.42556 0.50249,-4.00204 1.37109,-5.48242 0.65472,-1.15695 1.51459,-2.08736 2.50586,-2.78321 1.51794,-2.14687 3.79082,-3.38476 6.34375,-3.38476 3.9477,0 6.35069,2.63207 6.73633,7.45703 l 1.03516,12.93945 c 0.2235,2.79628 0.22771,4.22147 0.11133,6.19531 l 2.54296,0 c -0.19481,-1.1596 -0.3435,-2.40253 -0.48242,-4.14062 l -0.86328,-10.80078 c -0.13147,-1.64487 0.44276,-4.05644 1.35742,-5.64649 0.62262,-1.13097 1.46917,-2.03846 2.45118,-2.71093 1.43499,-2.08206 3.66709,-3.29297 6.13671,-3.29297 4.38633,0 6.48603,2.24827 6.90235,7.45703 l 1.0332,12.93945 c 0.23226,2.90594 0.27816,4.16664 0.11133,6.19531 l 2.54687,0 c -0.19659,-1.16402 -0.3465,-2.39124 -0.48632,-4.14062 l -1.08204,-13.54297 c -0.25855,-3.23491 -0.97746,-5.37242 -2.43359,-7.12695 -1.82016,-2.19317 -4.65472,-3.34375 -8.27344,-3.34375 -2.5565,0 -4.56025,0.54299 -6.22265,1.74609 -0.50768,0.65567 -0.99258,1.38068 -1.44336,2.23047 -0.0978,-0.23663 -0.17972,-0.41586 -0.26758,-0.61524 -0.62056,0.73853 -1.19531,1.60271 -1.73242,2.61524 -0.67976,-1.64487 -1.06057,-2.30438 -1.95313,-3.18164 -1.79387,-1.86419 -4.17162,-2.79492 -7.29687,-2.79492 z m -24.66797,0.60156 c 0.20358,1.21658 0.35823,2.49682 0.49414,4.19726 l 1.37109,17.16016 c 0.18406,2.30282 0.19899,3.83766 0.11328,6.19531 l 2.55665,0 c -0.21505,-1.27296 -0.3678,-2.5168 -0.50196,-4.19531 l -1.37109,-17.16016 c -0.21912,-2.74145 -0.23209,-4.27824 -0.11133,-6.19726 l -2.55078,0 z m 127.71094,0.74219 c 2.63179,0 4.8368,0.82192 6.66797,2.46679 1.89038,1.6997 2.87092,3.67372 3.44531,6.74414 l -2.48438,0 c 0.18781,0.61416 0.34859,1.27414 0.48438,2 l -18.53321,0 c 0.16245,-2.0835 0.35758,-3.07068 1.01563,-4.4414 0.67304,-1.47665 1.64376,-2.62566 2.83594,-3.43164 1.5036,-2.15192 3.79359,-3.33789 6.56836,-3.33789 z m 32.79687,0.21875 c 2.90594,0 5.62144,1.04206 7.68946,2.90625 2.12722,1.91901 3.47834,5.10003 3.76757,8.71875 0.37426,4.68249 -1.06741,8.27545 -3.86328,10.23632 -1.65071,2.32854 -4.29681,3.66016 -7.71289,3.66016 -3.07043,0 -5.74072,-1.15073 -7.61133,-3.28906 -1.57017,-1.80936 -2.64241,-4.93402 -2.93164,-8.55274 -0.39097,-4.89167 0.95966,-8.46726 3.68946,-10.29687 1.48133,-2.17841 3.85407,-3.38281 6.97265,-3.38281 z"
       transform="translate(-10.485365,11.76087)"
       id="text4221"
       inkscape:connector-curvature="0" />
  </g>
</svg>
