<?xml version="1.0" encoding="UTF-8" standalone="no"?>
<svg
   xmlns:dc="http://purl.org/dc/elements/1.1/"
   xmlns:cc="http://creativecommons.org/ns#"
   xmlns:rdf="http://www.w3.org/1999/02/22-rdf-syntax-ns#"
   xmlns:svg="http://www.w3.org/2000/svg"
   xmlns="http://www.w3.org/2000/svg"
   xmlns:sodipodi="http://sodipodi.sourceforge.net/DTD/sodipodi-0.dtd"
   xmlns:inkscape="http://www.inkscape.org/namespaces/inkscape"
   version="1.1"
   viewBox="0 0 738.04584 254.13539"
   stroke-miterlimit="10"
   id="svg2"
   inkscape:version="0.91 r13725"
   sodipodi:docname="simmedtk-mesh-interactions.svg"
   width="738.04584"
   height="254.13539"
   style="fill:none;stroke:none;stroke-linecap:square;stroke-miterlimit:10">
  <metadata
     id="metadata1965">
    <rdf:RDF>
      <cc:Work
         rdf:about="">
        <dc:format>image/svg+xml</dc:format>
        <dc:type
           rdf:resource="http://purl.org/dc/dcmitype/StillImage" />
        <dc:title />
      </cc:Work>
    </rdf:RDF>
  </metadata>
  <defs
     id="defs1963" />
  <sodipodi:namedview
     pagecolor="#ffffff"
     bordercolor="#666666"
     borderopacity="1"
     objecttolerance="10"
     gridtolerance="10"
     guidetolerance="10"
     inkscape:pageopacity="0"
     inkscape:pageshadow="2"
     inkscape:window-width="1295"
     inkscape:window-height="1095"
     id="namedview1961"
     showgrid="false"
     fit-margin-top="10"
     fit-margin-left="10"
     fit-margin-right="10"
     fit-margin-bottom="10"
     inkscape:zoom="1.357053"
     inkscape:cx="384.32454"
     inkscape:cy="184.29683"
     inkscape:window-x="0"
     inkscape:window-y="0"
     inkscape:window-maximized="0"
     inkscape:current-layer="g4226" />
  <clipPath
     id="p.0">
    <path
       d="m 0,0 1889,0 0,5565 L 0,5565 0,0 Z"
       id="path5"
       inkscape:connector-curvature="0"
       style="clip-rule:nonzero" />
  </clipPath>
  <path
     style="fill:#000000;fill-opacity:0;fill-rule:nonzero"
     inkscape:connector-curvature="0"
     id="path1893"
     d="m 86.6273,10 55.1496,0 0,29.1655 -55.1496,0 z" />
  <g
     id="g4226"
     transform="translate(8.3133072,0.51099418)">
    <path
       sodipodi:nodetypes="cssscc"
       d="m 524.52542,214.90935 c -6.3167,-18.937 5.06788,-41.15335 19.83938,-54.58135 18.9825,-17.2558 62.9784,-21.508 76.9607,0 14.0511,21.6143 -0.081,63.7805 -23.9423,73.5408 -15.6744,6.4114 -35.3043,13.5578 -50.4515,5.9841 -11.59827,-9.16767 -14.52019,-12.7226 -22.40628,-24.94355 z"
       id="path1903"
       inkscape:connector-curvature="0"
       style="fill:#2980b9;fill-opacity:1;fill-rule:evenodd;stroke:none;stroke-width:2;stroke-linecap:butt;stroke-linejoin:round" />
    <path
       sodipodi:nodetypes="ssssssssss"
       d="m 427.2153,134.6756 c 18.671,-13.337 44.5139,-15.4331 61.5695,-30.782 25.7164,-23.1433 47.4005,-53.8482 79.5223,-66.6983 17.8422,-7.1377 47.1304,2.5276 53.874,20.5223 6.3302,16.8913 8.2164,41.7378 -5.1312,53.8713 -17.7371,16.1238 -46.0702,16.0637 -64.9895,30.7822 -29.6162,23.0405 -47.5291,63.7073 -82.9448,76.105 -13.2809,4.6492 -29.6835,12.113 -41.9003,5.1313 -13.4137,-7.6657 -25.26576,-9.9076 -27.48101,-32.96719 -2.70236,-28.13013 10.98561,-44.18171 27.48101,-55.96461 z"
       id="path1899"
       inkscape:connector-curvature="0"
       style="fill:#ffd251;fill-opacity:1;fill-rule:evenodd;stroke:none;stroke-width:2;stroke-linecap:butt;stroke-linejoin:round" />
    <path
       style="fill:#ffd251;fill-opacity:1;fill-rule:evenodd;stroke:none;stroke-width:2;stroke-linecap:butt;stroke-linejoin:round"
       inkscape:connector-curvature="0"
       id="path4224"
       d="m 123.2153,134.6756 c 18.671,-13.337 -48.16013,-52.304283 -23.17295,-83.101254 45.36615,-55.9142727 90.79435,26.819016 105.72654,27.122265 12.53286,0.254523 45.13612,-36.1399 58.53821,-41.501311 17.84222,-7.137654 48.43986,2.089843 53.874,20.5223 7.80398,26.470882 -26.48978,55.23276 -23.55347,73.03046 3.63273,22.01893 35.46772,62.16334 7.22581,85.31213 -31.75256,26.02633 -83.87845,-15.57965 -97.02665,-16.21199 -14.76207,-0.70996 -25.77685,13.75001 -39.71119,18.6279 -13.28092,4.64915 -29.6835,12.113 -41.9003,5.1313 -13.4137,-7.6657 -25.26576,-9.9076 -27.48101,-32.96719 -2.70236,-28.13013 10.98561,-44.18171 27.48101,-55.96461 z"
       sodipodi:nodetypes="ssssssssssss" />
    <path
       d="m 111,77.0605 0,0 c 0,-17.0906 13.85449,-30.9451 30.94489,-30.9451 l 0,0 c 8.20709,0 16.07806,3.2603 21.88134,9.0638 5.80329,5.8032 9.06354,13.674 9.06354,21.8813 l 0,0 c 0,17.0903 -13.85449,30.9448 -30.94488,30.9448 l 0,0 C 124.85449,108.0053 111,94.1508 111,77.0605 Z"
       id="path1725"
       inkscape:connector-curvature="0"
       style="fill:#f3f3f3;fill-rule:nonzero" />
    <path
       d="m 111,77.0605 0,0 c 0,-17.0906 13.85449,-30.9451 30.94489,-30.9451 l 0,0 c 8.20709,0 16.07806,3.2603 21.88134,9.0638 5.80329,5.8032 9.06354,13.674 9.06354,21.8813 l 0,0 c 0,17.0903 -13.85449,30.9448 -30.94488,30.9448 l 0,0 C 124.85449,108.0053 111,94.1508 111,77.0605 Z"
       id="path1727"
       inkscape:connector-curvature="0"
       style="fill-rule:nonzero;stroke:#000000;stroke-width:2;stroke-linecap:butt;stroke-linejoin:round" />
    <path
       d="m 136.599,68.5054 5.4375,0 q 1.60937,0 2.40625,0.1406 0.79687,0.125 1.42187,0.5469 0.625,0.4219 1.03125,1.1406 0.42188,0.7031 0.42188,1.5938 0,0.9531 -0.51563,1.75 -0.5,0.7968 -1.39062,1.1875 1.25,0.375 1.90625,1.25 0.67187,0.8593 0.67187,2.0468 0,0.9219 -0.4375,1.7969 -0.42187,0.875 -1.17187,1.4063 -0.75,0.5156 -1.84375,0.6406 -0.6875,0.078 -3.3125,0.094 l -4.625,0 0,-13.5937 z m 2.75,2.25 0,3.1562 1.79687,0 q 1.60938,0 2,-0.047 0.70313,-0.094 1.09375,-0.4844 0.40625,-0.4063 0.40625,-1.0625 0,-0.6406 -0.34375,-1.0313 -0.34375,-0.3906 -1.03125,-0.4843 -0.40625,-0.047 -2.34375,-0.047 l -1.57812,0 z m 0,5.4219 0,3.625 2.54687,0 q 1.48438,0 1.875,-0.078 0.60938,-0.1093 1,-0.5312 0.39063,-0.4375 0.39063,-1.1719 0,-0.6094 -0.29688,-1.0312 -0.29687,-0.4219 -0.85937,-0.6094 -0.5625,-0.2031 -2.4375,-0.2031 l -2.21875,0 z"
       id="path1729"
       inkscape:connector-curvature="0"
       style="fill:#000000;fill-rule:nonzero" />
    <path
       d="m 243,77.0605 0,0 c 0,-17.0906 13.8545,-30.9451 30.9449,-30.9451 l 0,0 c 8.207,0 16.078,3.2603 21.8813,9.0638 5.8033,5.8032 9.0635,13.674 9.0635,21.8813 l 0,0 c 0,17.0903 -13.8545,30.9448 -30.9448,30.9448 l 0,0 C 256.8545,108.0053 243,94.1508 243,77.0605 Z"
       id="path1731"
       inkscape:connector-curvature="0"
       style="fill:#f3f3f3;fill-rule:nonzero" />
    <path
       d="m 243,77.0605 0,0 c 0,-17.0906 13.8545,-30.9451 30.9449,-30.9451 l 0,0 c 8.207,0 16.078,3.2603 21.8813,9.0638 5.8033,5.8032 9.0635,13.674 9.0635,21.8813 l 0,0 c 0,17.0903 -13.8545,30.9448 -30.9448,30.9448 l 0,0 C 256.8545,108.0053 243,94.1508 243,77.0605 Z"
       id="path1733"
       inkscape:connector-curvature="0"
       style="fill-rule:nonzero;stroke:#000000;stroke-width:2;stroke-linecap:butt;stroke-linejoin:round" />
    <path
       d="m 268.5834,68.5054 5.0156,0 q 1.7031,0 2.5938,0.25 1.1875,0.3594 2.0468,1.2656 0.8594,0.8906 1.2969,2.2031 0.4531,1.2969 0.4531,3.2032 0,1.6875 -0.4218,2.8906 -0.5157,1.4844 -1.4532,2.4062 -0.7187,0.7032 -1.9375,1.0938 -0.9062,0.2812 -2.4218,0.2812 l -5.1719,0 0,-13.5937 z m 2.75,2.2969 0,9 2.0469,0 q 1.1406,0 1.6562,-0.125 0.6719,-0.1719 1.1094,-0.5625 0.4375,-0.4063 0.7187,-1.3125 0.2813,-0.9219 0.2813,-2.5 0,-1.5782 -0.2813,-2.4219 -0.2812,-0.8438 -0.7812,-1.3125 -0.5,-0.4688 -1.2656,-0.6406 -0.5782,-0.125 -2.25,-0.125 l -1.2344,0 z"
       id="path1735"
       inkscape:connector-curvature="0"
       style="fill:#000000;fill-rule:nonzero" />
    <path
       d="m 111,185.0605 0,0 c 0,-17.0906 13.85449,-30.9451 30.94489,-30.9451 l 0,0 c 8.20709,0 16.07806,3.2603 21.88134,9.0638 5.80329,5.8032 9.06354,13.674 9.06354,21.8813 l 0,0 c 0,17.0903 -13.85449,30.9448 -30.94488,30.9448 l 0,0 C 124.85449,216.0053 111,202.1508 111,185.0605 Z"
       id="path1737"
       inkscape:connector-curvature="0"
       style="fill:#f3f3f3;fill-rule:nonzero" />
    <path
       d="m 111,185.0605 0,0 c 0,-17.0906 13.85449,-30.9451 30.94489,-30.9451 l 0,0 c 8.20709,0 16.07806,3.2603 21.88134,9.0638 5.80329,5.8032 9.06354,13.674 9.06354,21.8813 l 0,0 c 0,17.0903 -13.85449,30.9448 -30.94488,30.9448 l 0,0 C 124.85449,216.0053 111,202.1508 111,185.0605 Z"
       id="path1739"
       inkscape:connector-curvature="0"
       style="fill-rule:nonzero;stroke:#000000;stroke-width:2;stroke-linecap:butt;stroke-linejoin:round" />
    <path
       d="m 148.849,190.0991 -2.98438,0 -1.1875,-3.0937 -5.4375,0 -1.125,3.0937 -2.90625,0 5.29688,-13.5937 2.90625,0 5.4375,13.5937 z m -5.04688,-5.375 -1.875,-5.0469 -1.84375,5.0469 3.71875,0 z"
       id="path1741"
       inkscape:connector-curvature="0"
       style="fill:#000000;fill-rule:nonzero" />
    <path
       d="m 243,185.0605 0,0 c 0,-17.0906 13.8545,-30.9451 30.9449,-30.9451 l 0,0 c 8.207,0 16.078,3.2603 21.8813,9.0638 5.8033,5.8032 9.0635,13.674 9.0635,21.8813 l 0,0 c 0,17.0903 -13.8545,30.9448 -30.9448,30.9448 l 0,0 C 256.8545,216.0053 243,202.1508 243,185.0605 Z"
       id="path1743"
       inkscape:connector-curvature="0"
       style="fill:#f3f3f3;fill-rule:nonzero" />
    <path
       d="m 243,185.0605 0,0 c 0,-17.0906 13.8545,-30.9451 30.9449,-30.9451 l 0,0 c 8.207,0 16.078,3.2603 21.8813,9.0638 5.8033,5.8032 9.0635,13.674 9.0635,21.8813 l 0,0 c 0,17.0903 -13.8545,30.9448 -30.9448,30.9448 l 0,0 C 256.8545,216.0053 243,202.1508 243,185.0605 Z"
       id="path1745"
       inkscape:connector-curvature="0"
       style="fill-rule:nonzero;stroke:#000000;stroke-width:2;stroke-linecap:butt;stroke-linejoin:round" />
    <path
       d="m 277.2866,185.0991 2.6719,0.8438 q -0.6094,2.2187 -2.0469,3.3125 -1.4219,1.0781 -3.6094,1.0781 -2.7031,0 -4.4531,-1.8438 -1.7344,-1.8593 -1.7344,-5.0781 0,-3.3906 1.75,-5.2656 1.75,-1.875 4.6094,-1.875 2.5,0 4.0469,1.4687 0.9375,0.875 1.3906,2.5 l -2.7187,0.6563 q -0.2344,-1.0625 -1,-1.6719 -0.7657,-0.6094 -1.8594,-0.6094 -1.5156,0 -2.4531,1.0938 -0.9375,1.0781 -0.9375,3.5 0,2.5781 0.9218,3.6875 0.9219,1.0937 2.4063,1.0937 1.1094,0 1.8906,-0.6875 0.7813,-0.7031 1.125,-2.2031 z"
       id="path1747"
       inkscape:connector-curvature="0"
       style="fill:#000000;fill-rule:nonzero" />
    <path
       d="m 172.88976,185.0605 70.11024,0"
       id="path1749"
       inkscape:connector-curvature="0"
       style="fill:#000000;fill-opacity:0;fill-rule:nonzero" />
    <path
       d="m 184.88976,185.0605 46.11023,0"
       id="path1751"
       inkscape:connector-curvature="0"
       style="fill-rule:evenodd;stroke:#000000;stroke-width:2;stroke-linecap:butt;stroke-linejoin:round" />
    <path
       d="m 184.88976,181.7571 -9.07623,3.3035 9.07623,3.3034 z"
       id="path1753"
       inkscape:connector-curvature="0"
       style="fill:#000000;fill-rule:evenodd;stroke:#000000;stroke-width:2;stroke-linecap:butt" />
    <path
       d="m 231,188.364 9.07617,-3.3035 L 231,181.7571 Z"
       id="path1755"
       inkscape:connector-curvature="0"
       style="fill:#000000;fill-rule:evenodd;stroke:#000000;stroke-width:2;stroke-linecap:butt" />
    <path
       d="m 141.9449,108.0054 0,46.1101"
       id="path1757"
       inkscape:connector-curvature="0"
       style="fill:#000000;fill-opacity:0;fill-rule:nonzero" />
    <path
       d="m 141.9449,120.0054 0,22.1101"
       id="path1759"
       inkscape:connector-curvature="0"
       style="fill-rule:evenodd;stroke:#000000;stroke-width:2;stroke-linecap:butt;stroke-linejoin:round" />
    <path
       d="m 145.24834,120.0054 -3.30347,-9.0762 -3.30346,9.0762 z"
       id="path1761"
       inkscape:connector-curvature="0"
       style="fill:#000000;fill-rule:evenodd;stroke:#000000;stroke-width:2;stroke-linecap:butt" />
    <path
       d="m 138.6414,142.1155 3.30347,9.0762 3.30346,-9.0762 z"
       id="path1763"
       inkscape:connector-curvature="0"
       style="fill:#000000;fill-rule:evenodd;stroke:#000000;stroke-width:2;stroke-linecap:butt" />
    <path
       d="m 163.8262,98.9419 88.2519,64.252"
       id="path1765"
       inkscape:connector-curvature="0"
       style="fill:#000000;fill-opacity:0;fill-rule:nonzero" />
    <path
       d="m 173.5274,106.0047 68.8495,50.126"
       id="path1767"
       inkscape:connector-curvature="0"
       style="fill-rule:evenodd;stroke:#000000;stroke-width:2;stroke-linecap:butt;stroke-linejoin:round" />
    <path
       d="m 175.4718,103.334 -9.28192,-2.6714 5.39319,8.0127 z"
       id="path1769"
       inkscape:connector-curvature="0"
       style="fill:#000000;fill-rule:evenodd;stroke:#000000;stroke-width:2;stroke-linecap:butt" />
    <path
       d="m 240.43255,158.8012 9.28195,2.6714 -5.3932,-8.0127 z"
       id="path1771"
       inkscape:connector-curvature="0"
       style="fill:#000000;fill-rule:evenodd;stroke:#000000;stroke-width:2;stroke-linecap:butt" />
    <path
       d="M 163.8262,163.1792 252.0781,98.9273"
       id="path1773"
       inkscape:connector-curvature="0"
       style="fill:#000000;fill-opacity:0;fill-rule:nonzero" />
    <path
       d="m 173.5274,156.1162 68.8495,-50.126"
       id="path1775"
       inkscape:connector-curvature="0"
       style="fill-rule:evenodd;stroke:#000000;stroke-width:2;stroke-linecap:butt;stroke-linejoin:round" />
    <path
       d="m 171.58306,153.4455 -5.39319,8.0127 9.28192,-2.6714 z"
       id="path1777"
       inkscape:connector-curvature="0"
       style="fill:#000000;fill-rule:evenodd;stroke:#000000;stroke-width:2;stroke-linecap:butt" />
    <path
       d="m 244.3213,108.6609 5.3932,-8.0127 -9.28193,2.6714 z"
       id="path1779"
       inkscape:connector-curvature="0"
       style="fill:#000000;fill-rule:evenodd;stroke:#000000;stroke-width:2;stroke-linecap:butt" />
    <path
       d="m 273.9449,154.1155 0,-46.1101"
       id="path1781"
       inkscape:connector-curvature="0"
       style="fill:#000000;fill-opacity:0;fill-rule:nonzero" />
    <path
       d="m 273.9449,142.1155 0,-22.1101"
       id="path1783"
       inkscape:connector-curvature="0"
       style="fill-rule:evenodd;stroke:#000000;stroke-width:2;stroke-linecap:butt;stroke-linejoin:round" />
    <path
       d="m 270.6414,142.1155 3.3035,9.0762 3.3034,-9.0762 z"
       id="path1785"
       inkscape:connector-curvature="0"
       style="fill:#000000;fill-rule:evenodd;stroke:#000000;stroke-width:2;stroke-linecap:butt" />
    <path
       d="m 277.2483,120.0054 -3.3035,-9.0762 -3.3034,9.0762 z"
       id="path1787"
       inkscape:connector-curvature="0"
       style="fill:#000000;fill-rule:evenodd;stroke:#000000;stroke-width:2;stroke-linecap:butt" />
    <path
       d="m 414.9999,77.0605 0,0 c 0,-17.0906 13.8545,-30.9451 30.9449,-30.9451 l 0,0 c 8.2071,0 16.078,3.2603 21.8814,9.0638 5.8032,5.8032 9.0635,13.674 9.0635,21.8813 l 0,0 c 0,17.0903 -13.8545,30.9448 -30.9449,30.9448 l 0,0 c -17.0904,0 -30.9449,-13.8545 -30.9449,-30.9448 z"
       id="path1853"
       inkscape:connector-curvature="0"
       style="fill:#f3f3f3;fill-rule:nonzero" />
    <path
       d="m 414.9999,77.0605 0,0 c 0,-17.0906 13.8545,-30.9451 30.9449,-30.9451 l 0,0 c 8.2071,0 16.078,3.2603 21.8814,9.0638 5.8032,5.8032 9.0635,13.674 9.0635,21.8813 l 0,0 c 0,17.0903 -13.8545,30.9448 -30.9449,30.9448 l 0,0 c -17.0904,0 -30.9449,-13.8545 -30.9449,-30.9448 z"
       id="path1855"
       inkscape:connector-curvature="0"
       style="fill-rule:nonzero;stroke:#000000;stroke-width:2;stroke-linecap:butt;stroke-linejoin:round" />
    <path
       d="m 440.5991,68.5054 5.4375,0 q 1.6094,0 2.4063,0.1406 0.7968,0.125 1.4218,0.5469 0.625,0.4219 1.0313,1.1406 0.4219,0.7031 0.4219,1.5938 0,0.9531 -0.5157,1.75 -0.5,0.7968 -1.3906,1.1875 1.25,0.375 1.9063,1.25 0.6718,0.8593 0.6718,2.0468 0,0.9219 -0.4375,1.7969 -0.4218,0.875 -1.1718,1.4063 -0.75,0.5156 -1.8438,0.6406 -0.6875,0.078 -3.3125,0.094 l -4.625,0 0,-13.5937 z m 2.75,2.25 0,3.1562 1.7969,0 q 1.6094,0 2,-0.047 0.7031,-0.094 1.0937,-0.4844 0.4063,-0.4063 0.4063,-1.0625 0,-0.6406 -0.3438,-1.0313 -0.3437,-0.3906 -1.0312,-0.4843 -0.4063,-0.047 -2.3438,-0.047 l -1.5781,0 z m 0,5.4219 0,3.625 2.5469,0 q 1.4844,0 1.875,-0.078 0.6094,-0.1093 1,-0.5312 0.3906,-0.4375 0.3906,-1.1719 0,-0.6094 -0.2969,-1.0312 -0.2968,-0.4219 -0.8593,-0.6094 -0.5625,-0.2031 -2.4375,-0.2031 l -2.2188,0 z"
       id="path1857"
       inkscape:connector-curvature="0"
       style="fill:#000000;fill-rule:nonzero" />
    <path
       d="m 546.9999,77.0605 0,0 c 0,-17.0906 13.8545,-30.9451 30.9449,-30.9451 l 0,0 c 8.2071,0 16.078,3.2603 21.8814,9.0638 5.8032,5.8032 9.0635,13.674 9.0635,21.8813 l 0,0 c 0,17.0903 -13.8545,30.9448 -30.9449,30.9448 l 0,0 c -17.0904,0 -30.9449,-13.8545 -30.9449,-30.9448 z"
       id="path1859"
       inkscape:connector-curvature="0"
       style="fill:#f3f3f3;fill-rule:nonzero" />
    <path
       d="m 546.9999,77.0605 0,0 c 0,-17.0906 13.8545,-30.9451 30.9449,-30.9451 l 0,0 c 8.2071,0 16.078,3.2603 21.8814,9.0638 5.8032,5.8032 9.0635,13.674 9.0635,21.8813 l 0,0 c 0,17.0903 -13.8545,30.9448 -30.9449,30.9448 l 0,0 c -17.0904,0 -30.9449,-13.8545 -30.9449,-30.9448 z"
       id="path1861"
       inkscape:connector-curvature="0"
       style="fill-rule:nonzero;stroke:#000000;stroke-width:2;stroke-linecap:butt;stroke-linejoin:round" />
    <path
       d="m 572.5834,68.5054 5.0156,0 q 1.7031,0 2.5938,0.25 1.1875,0.3594 2.0468,1.2656 0.8594,0.8906 1.2969,2.2031 0.4531,1.2969 0.4531,3.2032 0,1.6875 -0.4218,2.8906 -0.5157,1.4844 -1.4532,2.4062 -0.7187,0.7032 -1.9375,1.0938 -0.9062,0.2812 -2.4218,0.2812 l -5.1719,0 0,-13.5937 z m 2.75,2.2969 0,9 2.0469,0 q 1.1406,0 1.6562,-0.125 0.6719,-0.1719 1.1094,-0.5625 0.4375,-0.4063 0.7187,-1.3125 0.2813,-0.9219 0.2813,-2.5 0,-1.5782 -0.2813,-2.4219 -0.2812,-0.8438 -0.7812,-1.3125 -0.5,-0.4688 -1.2656,-0.6406 -0.5782,-0.125 -2.25,-0.125 l -1.2344,0 z"
       id="path1863"
       inkscape:connector-curvature="0"
       style="fill:#000000;fill-rule:nonzero" />
    <path
       d="m 414.9999,185.0605 0,0 c 0,-17.0906 13.8545,-30.9451 30.9449,-30.9451 l 0,0 c 8.2071,0 16.078,3.2603 21.8814,9.0638 5.8032,5.8032 9.0635,13.674 9.0635,21.8813 l 0,0 c 0,17.0903 -13.8545,30.9448 -30.9449,30.9448 l 0,0 c -17.0904,0 -30.9449,-13.8545 -30.9449,-30.9448 z"
       id="path1865"
       inkscape:connector-curvature="0"
       style="fill:#f3f3f3;fill-rule:nonzero" />
    <path
       d="m 414.9999,185.0605 0,0 c 0,-17.0906 13.8545,-30.9451 30.9449,-30.9451 l 0,0 c 8.2071,0 16.078,3.2603 21.8814,9.0638 5.8032,5.8032 9.0635,13.674 9.0635,21.8813 l 0,0 c 0,17.0903 -13.8545,30.9448 -30.9449,30.9448 l 0,0 c -17.0904,0 -30.9449,-13.8545 -30.9449,-30.9448 z"
       id="path1867"
       inkscape:connector-curvature="0"
       style="fill-rule:nonzero;stroke:#000000;stroke-width:2;stroke-linecap:butt;stroke-linejoin:round" />
    <path
       d="m 452.8491,190.0991 -2.9844,0 -1.1875,-3.0937 -5.4375,0 -1.125,3.0937 -2.9062,0 5.2969,-13.5937 2.9062,0 5.4375,13.5937 z m -5.0469,-5.375 -1.875,-5.0469 -1.8437,5.0469 3.7187,0 z"
       id="path1869"
       inkscape:connector-curvature="0"
       style="fill:#000000;fill-rule:nonzero" />
    <path
       d="m 546.9999,185.0605 0,0 c 0,-17.0906 13.8545,-30.9451 30.9449,-30.9451 l 0,0 c 8.2071,0 16.078,3.2603 21.8814,9.0638 5.8032,5.8032 9.0635,13.674 9.0635,21.8813 l 0,0 c 0,17.0903 -13.8545,30.9448 -30.9449,30.9448 l 0,0 c -17.0904,0 -30.9449,-13.8545 -30.9449,-30.9448 z"
       id="path1871"
       inkscape:connector-curvature="0"
       style="fill:#f3f3f3;fill-rule:nonzero" />
    <path
       d="m 546.9999,185.0605 0,0 c 0,-17.0906 13.8545,-30.9451 30.9449,-30.9451 l 0,0 c 8.2071,0 16.078,3.2603 21.8814,9.0638 5.8032,5.8032 9.0635,13.674 9.0635,21.8813 l 0,0 c 0,17.0903 -13.8545,30.9448 -30.9449,30.9448 l 0,0 c -17.0904,0 -30.9449,-13.8545 -30.9449,-30.9448 z"
       id="path1873"
       inkscape:connector-curvature="0"
       style="fill-rule:nonzero;stroke:#000000;stroke-width:2;stroke-linecap:butt;stroke-linejoin:round" />
    <path
       d="m 581.2866,185.0991 2.6719,0.8438 q -0.6094,2.2187 -2.0469,3.3125 -1.4219,1.0781 -3.6094,1.0781 -2.7031,0 -4.4531,-1.8438 -1.7344,-1.8593 -1.7344,-5.0781 0,-3.3906 1.75,-5.2656 1.75,-1.875 4.6094,-1.875 2.5,0 4.0469,1.4687 0.9375,0.875 1.3906,2.5 l -2.7187,0.6563 q -0.2344,-1.0625 -1,-1.6719 -0.7657,-0.6094 -1.8594,-0.6094 -1.5156,0 -2.4531,1.0938 -0.9375,1.0781 -0.9375,3.5 0,2.5781 0.9218,3.6875 0.9219,1.0937 2.4063,1.0937 1.1094,0 1.8906,-0.6875 0.7813,-0.7031 1.125,-2.2031 z"
       id="path1875"
       inkscape:connector-curvature="0"
       style="fill:#000000;fill-rule:nonzero" />
    <path
       d="m 467.8262,163.1792 88.252,-64.2519"
       id="path1877"
       inkscape:connector-curvature="0"
       style="fill:#000000;fill-opacity:0;fill-rule:nonzero" />
    <path
       d="m 477.5275,156.1162 68.8495,-50.126"
       id="path1879"
       inkscape:connector-curvature="0"
       style="fill-rule:evenodd;stroke:#000000;stroke-width:2;stroke-linecap:butt;stroke-linejoin:round" />
    <path
       d="m 475.5832,153.4455 -5.3932,8.0127 9.2819,-2.6714 z"
       id="path1881"
       inkscape:connector-curvature="0"
       style="fill:#000000;fill-rule:evenodd;stroke:#000000;stroke-width:2;stroke-linecap:butt" />
    <path
       d="m 548.3213,108.6609 5.3932,-8.0127 -9.2819,2.6714 z"
       id="path1883"
       inkscape:connector-curvature="0"
       style="fill:#000000;fill-rule:evenodd;stroke:#000000;stroke-width:2;stroke-linecap:butt" />
    <path
       d="m 482.6272,10 125.6693,0 0,29.1655 -125.6693,0 z"
       id="path1889"
       inkscape:connector-curvature="0"
       style="fill:#000000;fill-opacity:0;fill-rule:nonzero" />
    <path
       d="m 398.9974,188.5469 c 0,-20.2712 11.7225,-42.0884 28.2179,-53.8713 18.671,-13.337 44.5139,-15.4331 61.5695,-30.782 25.7164,-23.1433 47.4005,-53.8482 79.5223,-66.6983 17.8422,-7.1377 47.1304,2.5276 53.874,20.5223 6.3302,16.8913 8.2164,41.7378 -5.1312,53.8713 -17.7371,16.1238 -46.0702,16.0637 -64.9895,30.7822 -29.6162,23.0405 -47.5291,63.7073 -82.9448,76.105 -13.2809,4.6492 -29.6835,12.113 -41.9003,5.1313 -13.4137,-7.6657 -23.3278,-22.1137 -28.2179,-36.769"
       id="path1897"
       inkscape:connector-curvature="0"
       style="fill:#000000;fill-opacity:0;fill-rule:evenodd" />
    <path
       d="m 534.105,219.3307 c -6.3167,-18.937 -4.5117,-45.5747 10.2598,-59.0027 18.9825,-17.2558 62.9784,-21.508 76.9607,0 14.0511,21.6143 -0.081,63.7805 -23.9423,73.5408 -15.6744,6.4114 -35.3043,13.5578 -50.4515,5.9841 -8.7019,-4.3508 -12.3143,-15.5688 -15.3937,-24.7978"
       id="path1901"
       inkscape:connector-curvature="0"
       style="fill:#000000;fill-opacity:0;fill-rule:evenodd" />
  </g>
</svg>
