<?xml version="1.0" encoding="UTF-8" standalone="no"?>
<svg
   xmlns:dc="http://purl.org/dc/elements/1.1/"
   xmlns:cc="http://creativecommons.org/ns#"
   xmlns:rdf="http://www.w3.org/1999/02/22-rdf-syntax-ns#"
   xmlns:svg="http://www.w3.org/2000/svg"
   xmlns="http://www.w3.org/2000/svg"
   xmlns:sodipodi="http://sodipodi.sourceforge.net/DTD/sodipodi-0.dtd"
   xmlns:inkscape="http://www.inkscape.org/namespaces/inkscape"
   version="1.1"
   viewBox="0 0 864.02185 500.6413"
   stroke-miterlimit="10"
   id="svg2"
   inkscape:version="0.91 r13725"
   sodipodi:docname="simmedtk-interaction-types.svg"
   width="864.02185"
   height="500.6413"
   style="fill:none;stroke:none;stroke-linecap:square;stroke-miterlimit:10">
  <metadata
     id="metadata1965">
    <rdf:RDF>
      <cc:Work
         rdf:about="">
        <dc:format>image/svg+xml</dc:format>
        <dc:type
           rdf:resource="http://purl.org/dc/dcmitype/StillImage" />
        <dc:title />
      </cc:Work>
    </rdf:RDF>
  </metadata>
  <defs
     id="defs1963" />
  <sodipodi:namedview
     pagecolor="#ffffff"
     bordercolor="#666666"
     borderopacity="1"
     objecttolerance="10"
     gridtolerance="10"
     guidetolerance="10"
     inkscape:pageopacity="0"
     inkscape:pageshadow="2"
     inkscape:window-width="1295"
     inkscape:window-height="1095"
     id="namedview1961"
     showgrid="false"
     fit-margin-top="10"
     fit-margin-left="100"
     fit-margin-right="100"
     fit-margin-bottom="10"
     inkscape:zoom="1"
     inkscape:cx="472.1662"
     inkscape:cy="356.03683"
     inkscape:window-x="0"
     inkscape:window-y="0"
     inkscape:window-maximized="0"
     inkscape:current-layer="g5458" />
  <clipPath
     id="p.0">
    <path
       d="m 0,0 1889,0 0,5565 L 0,5565 0,0 Z"
       id="path5"
       inkscape:connector-curvature="0"
       style="clip-rule:nonzero" />
  </clipPath>
  <g
     id="g5323"
     transform="translate(-347.39303,507.61357)">
    <path
       sodipodi:nodetypes="cssscc"
       d="m 707.67713,-419.91837 c -6.3167,-18.937 -3.26907,-32.81638 11.50243,-46.24438 18.9825,-17.2558 52.03613,-14.73421 66.01843,6.77379 14.0511,21.6143 10.86127,57.00671 -13.00003,66.76701 -15.6744,6.4114 -26.44627,3.65765 -41.59347,-3.91605 -11.5983,-9.16767 -15.04126,-11.15942 -22.92736,-23.38037 z"
       id="path1903"
       inkscape:connector-curvature="0"
       style="fill:#2980b9;fill-opacity:1;fill-rule:evenodd;stroke:none;stroke-width:2;stroke-linecap:butt;stroke-linejoin:round;stroke-miterlimit:10" />
    <path
       sodipodi:nodetypes="sszcszss"
       d="m 681.03156,-486.60454 c -111.45109,-1.12732 -134.32295,20.62762 -140.602,54.67193 -2.41669,13.10301 -26.74754,45.67466 -58.03767,34.38745 -31.29014,-11.28721 -30.96758,-55.06275 -8.05282,-74.10866 49.04108,-38.42896 377.26027,-29.96107 413.86516,-2.04461 21.83771,16.65437 31.61521,62.50178 -1.65936,74.54181 -33.27458,12.04003 -51.1691,-4.5479 -61.04433,-34.60968 -18.93733,-57.64823 -132.74961,-52.7197 -144.46898,-52.83824 z"
       id="path1899"
       inkscape:connector-curvature="0"
       style="fill:#ffd251;fill-opacity:1;fill-rule:evenodd;stroke:none;stroke-width:2;stroke-linecap:butt;stroke-linejoin:round;stroke-miterlimit:10" />
    <g
       transform="translate(0.9112916,0)"
       id="g5196">
      <g
         id="g5048"
         transform="translate(0,-152)">
        <path
           d="m 585.46488,-282.64725 0,0 c 0,-17.0906 13.8545,-30.9451 30.9449,-30.9451 l 0,0 c 8.2071,0 16.078,3.2603 21.8814,9.0638 5.8032,5.8032 9.0635,13.674 9.0635,21.8813 l 0,0 c 0,17.0903 -13.8545,30.9448 -30.9449,30.9448 l 0,0 c -17.0904,0 -30.9449,-13.8545 -30.9449,-30.9448 z"
           id="path1853"
           inkscape:connector-curvature="0"
           style="fill:#f3f3f3;fill-rule:nonzero;stroke:none;stroke-linecap:square;stroke-miterlimit:10" />
        <path
           d="m 585.46488,-282.64725 0,0 c 0,-17.0906 13.8545,-30.9451 30.9449,-30.9451 l 0,0 c 8.2071,0 16.078,3.2603 21.8814,9.0638 5.8032,5.8032 9.0635,13.674 9.0635,21.8813 l 0,0 c 0,17.0903 -13.8545,30.9448 -30.9449,30.9448 l 0,0 c -17.0904,0 -30.9449,-13.8545 -30.9449,-30.9448 z"
           id="path1855"
           inkscape:connector-curvature="0"
           style="fill:none;fill-rule:nonzero;stroke:#000000;stroke-width:2;stroke-linecap:butt;stroke-linejoin:round;stroke-miterlimit:10" />
        <path
           d="m 611.06408,-291.20235 5.4375,0 q 1.6094,0 2.4063,0.1406 0.7968,0.125 1.4218,0.5469 0.625,0.4219 1.0313,1.1406 0.4219,0.7031 0.4219,1.5938 0,0.9531 -0.5157,1.75 -0.5,0.7968 -1.3906,1.1875 1.25,0.375 1.9063,1.25 0.6718,0.8593 0.6718,2.0468 0,0.9219 -0.4375,1.7969 -0.4218,0.875 -1.1718,1.4063 -0.75,0.5156 -1.8438,0.6406 -0.6875,0.078 -3.3125,0.094 l -4.625,0 0,-13.5937 z m 2.75,2.25 0,3.1562 1.7969,0 q 1.6094,0 2,-0.047 0.7031,-0.094 1.0937,-0.4844 0.4063,-0.4063 0.4063,-1.0625 0,-0.6406 -0.3438,-1.0313 -0.3437,-0.3906 -1.0312,-0.4843 -0.4063,-0.047 -2.3438,-0.047 l -1.5781,0 z m 0,5.4219 0,3.625 2.5469,0 q 1.4844,0 1.875,-0.078 0.6094,-0.1093 1,-0.5312 0.3906,-0.4375 0.3906,-1.1719 0,-0.6094 -0.2969,-1.0312 -0.2968,-0.4219 -0.8593,-0.6094 -0.5625,-0.2031 -2.4375,-0.2031 l -2.2188,0 z"
           id="path1857"
           inkscape:connector-curvature="0"
           style="fill:#000000;fill-rule:nonzero;stroke:none;stroke-linecap:square;stroke-miterlimit:10" />
      </g>
      <g
         id="g5059"
         transform="translate(0,-260)">
        <path
           d="m 717.46488,-174.64725 0,0 c 0,-17.0906 13.8545,-30.9451 30.9449,-30.9451 l 0,0 c 8.2071,0 16.078,3.2603 21.8814,9.0638 5.8032,5.8032 9.0635,13.674 9.0635,21.8813 l 0,0 c 0,17.0903 -13.8545,30.9448 -30.9449,30.9448 l 0,0 c -17.0904,0 -30.9449,-13.8545 -30.9449,-30.9448 z"
           id="path1871"
           inkscape:connector-curvature="0"
           style="fill:#f3f3f3;fill-rule:nonzero;stroke:none;stroke-linecap:square;stroke-miterlimit:10" />
        <path
           d="m 717.46488,-174.64725 0,0 c 0,-17.0906 13.8545,-30.9451 30.9449,-30.9451 l 0,0 c 8.2071,0 16.078,3.2603 21.8814,9.0638 5.8032,5.8032 9.0635,13.674 9.0635,21.8813 l 0,0 c 0,17.0903 -13.8545,30.9448 -30.9449,30.9448 l 0,0 c -17.0904,0 -30.9449,-13.8545 -30.9449,-30.9448 z"
           id="path1873"
           inkscape:connector-curvature="0"
           style="fill:none;fill-rule:nonzero;stroke:#000000;stroke-width:2;stroke-linecap:butt;stroke-linejoin:round;stroke-miterlimit:10" />
        <path
           d="m 751.75158,-174.60865 2.6719,0.8438 q -0.6094,2.2187 -2.0469,3.3125 -1.4219,1.0781 -3.6094,1.0781 -2.7031,0 -4.4531,-1.8438 -1.7344,-1.8593 -1.7344,-5.0781 0,-3.3906 1.75,-5.2656 1.75,-1.875 4.6094,-1.875 2.5,0 4.0469,1.4687 0.9375,0.875 1.3906,2.5 l -2.7187,0.6563 q -0.2344,-1.0625 -1,-1.6719 -0.7657,-0.6094 -1.8594,-0.6094 -1.5156,0 -2.4531,1.0938 -0.9375,1.0781 -0.9375,3.5 0,2.5781 0.9218,3.6875 0.9219,1.0937 2.4063,1.0937 1.1094,0 1.8906,-0.6875 0.7813,-0.7031 1.125,-2.2031 z"
           id="path1875"
           inkscape:connector-curvature="0"
           style="fill:#000000;fill-rule:nonzero;stroke:none;stroke-linecap:square;stroke-miterlimit:10" />
      </g>
      <g
         id="g5074"
         transform="translate(-120,-260)">
        <path
           d="m 585.46488,-174.64725 0,0 c 0,-17.0906 13.8545,-30.9451 30.9449,-30.9451 l 0,0 c 8.2071,0 16.078,3.2603 21.8814,9.0638 5.8032,5.8032 9.0635,13.674 9.0635,21.8813 l 0,0 c 0,17.0903 -13.8545,30.9448 -30.9449,30.9448 l 0,0 c -17.0904,0 -30.9449,-13.8545 -30.9449,-30.9448 z"
           id="path1865"
           inkscape:connector-curvature="0"
           style="fill:#f3f3f3;fill-rule:nonzero;stroke:none;stroke-linecap:square;stroke-miterlimit:10" />
        <path
           d="m 585.46488,-174.64725 0,0 c 0,-17.0906 13.8545,-30.9451 30.9449,-30.9451 l 0,0 c 8.2071,0 16.078,3.2603 21.8814,9.0638 5.8032,5.8032 9.0635,13.674 9.0635,21.8813 l 0,0 c 0,17.0903 -13.8545,30.9448 -30.9449,30.9448 l 0,0 c -17.0904,0 -30.9449,-13.8545 -30.9449,-30.9448 z"
           id="path1867"
           inkscape:connector-curvature="0"
           style="fill:none;fill-rule:nonzero;stroke:#000000;stroke-width:2;stroke-linecap:butt;stroke-linejoin:round;stroke-miterlimit:10" />
        <path
           d="m 623.31408,-169.60865 -2.9844,0 -1.1875,-3.0937 -5.4375,0 -1.125,3.0937 -2.9062,0 5.2969,-13.5937 2.9062,0 5.4375,13.5937 z m -5.0469,-5.375 -1.875,-5.0469 -1.8437,5.0469 3.7187,0 z"
           id="path1869"
           inkscape:connector-curvature="0"
           style="fill:#000000;fill-rule:nonzero;stroke:none;stroke-linecap:square;stroke-miterlimit:10" />
      </g>
      <g
         id="g5053"
         transform="translate(120,-152)">
        <path
           d="m 717.46488,-282.64725 0,0 c 0,-17.0906 13.8545,-30.9451 30.9449,-30.9451 l 0,0 c 8.2071,0 16.078,3.2603 21.8814,9.0638 5.8032,5.8032 9.0635,13.674 9.0635,21.8813 l 0,0 c 0,17.0903 -13.8545,30.9448 -30.9449,30.9448 l 0,0 c -17.0904,0 -30.9449,-13.8545 -30.9449,-30.9448 z"
           id="path1859"
           inkscape:connector-curvature="0"
           style="fill:#f3f3f3;fill-rule:nonzero;stroke:none;stroke-linecap:square;stroke-miterlimit:10" />
        <path
           d="m 717.46488,-282.64725 0,0 c 0,-17.0906 13.8545,-30.9451 30.9449,-30.9451 l 0,0 c 8.2071,0 16.078,3.2603 21.8814,9.0638 5.8032,5.8032 9.0635,13.674 9.0635,21.8813 l 0,0 c 0,17.0903 -13.8545,30.9448 -30.9449,30.9448 l 0,0 c -17.0904,0 -30.9449,-13.8545 -30.9449,-30.9448 z"
           id="path1861"
           inkscape:connector-curvature="0"
           style="fill:none;fill-rule:nonzero;stroke:#000000;stroke-width:2;stroke-linecap:butt;stroke-linejoin:round;stroke-miterlimit:10" />
        <path
           d="m 743.04838,-291.20235 5.0156,0 q 1.7031,0 2.5938,0.25 1.1875,0.3594 2.0468,1.2656 0.8594,0.8906 1.2969,2.2031 0.4531,1.2969 0.4531,3.2032 0,1.6875 -0.4218,2.8906 -0.5157,1.4844 -1.4532,2.4062 -0.7187,0.7032 -1.9375,1.0938 -0.9062,0.2812 -2.4218,0.2812 l -5.1719,0 0,-13.5937 z m 2.75,2.2969 0,9 2.0469,0 q 1.1406,0 1.6562,-0.125 0.6719,-0.1719 1.1094,-0.5625 0.4375,-0.4063 0.7187,-1.3125 0.2813,-0.9219 0.2813,-2.5 0,-1.5782 -0.2813,-2.4219 -0.2812,-0.8438 -0.7812,-1.3125 -0.5,-0.4688 -1.2656,-0.6406 -0.5782,-0.125 -2.25,-0.125 l -1.2344,0 z"
           id="path1863"
           inkscape:connector-curvature="0"
           style="fill:#000000;fill-rule:nonzero;stroke:none;stroke-linecap:square;stroke-miterlimit:10" />
      </g>
    </g>
  </g>
  <g
     id="g5214"
     transform="translate(-349.67053,507.61357)">
    <g
       transform="translate(44,0)"
       id="g5190">
      <rect
         y="-313.13803"
         x="806.67053"
         height="34.911037"
         width="69.301079"
         id="rect5165"
         style="opacity:1;fill:#bfefb8;fill-opacity:1;stroke:#000000;stroke-width:2;stroke-linecap:round;stroke-linejoin:round;stroke-miterlimit:4;stroke-dasharray:none;stroke-dashoffset:0;stroke-opacity:1"
         ry="11.984392" />
      <g
         id="g5147"
         transform="translate(-10,0)">
        <path
           style="fill:#000000;fill-rule:nonzero;stroke:none;stroke-linecap:square;stroke-miterlimit:10"
           inkscape:connector-curvature="0"
           id="path5115"
           d="m 863.04838,-303.20235 5.0156,0 q 1.7031,0 2.5938,0.25 1.1875,0.3594 2.0468,1.2656 0.8594,0.8906 1.2969,2.2031 0.4531,1.2969 0.4531,3.2032 0,1.6875 -0.4218,2.8906 -0.5157,1.4844 -1.4532,2.4062 -0.7187,0.7032 -1.9375,1.0938 -0.9062,0.2812 -2.4218,0.2812 l -5.1719,0 0,-13.5937 z m 2.75,2.2969 0,9 2.0469,0 q 1.1406,0 1.6562,-0.125 0.6719,-0.1719 1.1094,-0.5625 0.4375,-0.4063 0.7187,-1.3125 0.2813,-0.9219 0.2813,-2.5 0,-1.5782 -0.2813,-2.4219 -0.2812,-0.8438 -0.7812,-1.3125 -0.5,-0.4688 -1.2656,-0.6406 -0.5782,-0.125 -2.25,-0.125 l -1.2344,0 z" />
        <path
           style="fill:#000000;fill-rule:nonzero;stroke:none;stroke-linecap:square;stroke-miterlimit:10"
           inkscape:connector-curvature="0"
           id="path5133"
           d="m 843.31408,-289.60865 -2.9844,0 -1.1875,-3.0937 -5.4375,0 -1.125,3.0937 -2.9062,0 5.2969,-13.5937 2.9062,0 5.4375,13.5937 z m -5.0469,-5.375 -1.875,-5.0469 -1.8437,5.0469 3.7187,0 z" />
      </g>
    </g>
    <g
       transform="translate(44,0)"
       id="g5167">
      <rect
         y="-313.13803"
         x="406.67053"
         height="34.911037"
         width="69.301079"
         id="rect5087"
         style="opacity:1;fill:#bfefb8;fill-opacity:1;stroke:#000000;stroke-width:2;stroke-linecap:round;stroke-linejoin:round;stroke-miterlimit:4;stroke-dasharray:none;stroke-dashoffset:0;stroke-opacity:1"
         ry="11.984392" />
      <g
         id="g5155">
        <path
           style="fill:#000000;fill-rule:nonzero;stroke:none;stroke-linecap:square;stroke-miterlimit:10"
           inkscape:connector-curvature="0"
           id="path5085"
           d="m 431.31408,-289.60865 -2.9844,0 -1.1875,-3.0937 -5.4375,0 -1.125,3.0937 -2.9062,0 5.2969,-13.5937 2.9062,0 5.4375,13.5937 z m -5.0469,-5.375 -1.875,-5.0469 -1.8437,5.0469 3.7187,0 z" />
        <path
           d="m 451.06408,-303.20235 5.4375,0 q 1.6094,0 2.4063,0.1406 0.7968,0.125 1.4218,0.5469 0.625,0.4219 1.0313,1.1406 0.4219,0.7031 0.4219,1.5938 0,0.9531 -0.5157,1.75 -0.5,0.7968 -1.3906,1.1875 1.25,0.375 1.9063,1.25 0.6718,0.8593 0.6718,2.0468 0,0.9219 -0.4375,1.7969 -0.4218,0.875 -1.1718,1.4063 -0.75,0.5156 -1.8438,0.6406 -0.6875,0.078 -3.3125,0.094 l -4.625,0 0,-13.5937 z m 2.75,2.25 0,3.1562 1.7969,0 q 1.6094,0 2,-0.047 0.7031,-0.094 1.0937,-0.4844 0.4063,-0.4063 0.4063,-1.0625 0,-0.6406 -0.3438,-1.0313 -0.3437,-0.3906 -1.0312,-0.4843 -0.4063,-0.047 -2.3438,-0.047 l -1.5781,0 z m 0,5.4219 0,3.625 2.5469,0 q 1.4844,0 1.875,-0.078 0.6094,-0.1093 1,-0.5312 0.3906,-0.4375 0.3906,-1.1719 0,-0.6094 -0.2969,-1.0312 -0.2968,-0.4219 -0.8593,-0.6094 -0.5625,-0.2031 -2.4375,-0.2031 l -2.2188,0 z"
           id="path5135"
           inkscape:connector-curvature="0"
           style="fill:#000000;fill-rule:nonzero;stroke:none;stroke-linecap:square;stroke-miterlimit:10" />
      </g>
    </g>
    <g
       transform="translate(44,0)"
       id="g5173">
      <rect
         ry="11.984392"
         style="opacity:1;fill:#bfefb8;fill-opacity:1;stroke:#000000;stroke-width:2;stroke-linecap:round;stroke-linejoin:round;stroke-miterlimit:4;stroke-dasharray:none;stroke-dashoffset:0;stroke-opacity:1"
         id="rect5159"
         width="69.301079"
         height="34.911037"
         x="506.67053"
         y="-313.13803" />
      <path
         style="fill:#000000;fill-rule:nonzero;stroke:none;stroke-linecap:square;stroke-miterlimit:10"
         inkscape:connector-curvature="0"
         id="path5131"
         d="m 533.31408,-289.60865 -2.9844,0 -1.1875,-3.0937 -5.4375,0 -1.125,3.0937 -2.9062,0 5.2969,-13.5937 2.9062,0 5.4375,13.5937 z m -5.0469,-5.375 -1.875,-5.0469 -1.8437,5.0469 3.7187,0 z" />
      <path
         style="fill:#000000;fill-rule:nonzero;stroke:none;stroke-linecap:square;stroke-miterlimit:10"
         inkscape:connector-curvature="0"
         id="path5137"
         d="m 561.75158,-294.60865 2.6719,0.8438 q -0.6094,2.2187 -2.0469,3.3125 -1.4219,1.0781 -3.6094,1.0781 -2.7031,0 -4.4531,-1.8438 -1.7344,-1.8593 -1.7344,-5.0781 0,-3.3906 1.75,-5.2656 1.75,-1.875 4.6094,-1.875 2.5,0 4.0469,1.4687 0.9375,0.875 1.3906,2.5 l -2.7187,0.6563 q -0.2344,-1.0625 -1,-1.6719 -0.7657,-0.6094 -1.8594,-0.6094 -1.5156,0 -2.4531,1.0938 -0.9375,1.0781 -0.9375,3.5 0,2.5781 0.9218,3.6875 0.9219,1.0937 2.4063,1.0937 1.1094,0 1.8906,-0.6875 0.7813,-0.7031 1.125,-2.2031 z" />
    </g>
    <g
       transform="translate(44,0)"
       id="g5178">
      <rect
         y="-313.13803"
         x="606.67053"
         height="34.911037"
         width="69.301079"
         id="rect5161"
         style="opacity:1;fill:#bfefb8;fill-opacity:1;stroke:#000000;stroke-width:2;stroke-linecap:round;stroke-linejoin:round;stroke-miterlimit:4;stroke-dasharray:none;stroke-dashoffset:0;stroke-opacity:1"
         ry="11.984392" />
      <g
         id="g5151"
         transform="translate(10,40)">
        <path
           style="fill:#000000;fill-rule:nonzero;stroke:none;stroke-linecap:square;stroke-miterlimit:10"
           inkscape:connector-curvature="0"
           id="path5099"
           d="m 611.06408,-343.20235 5.4375,0 q 1.6094,0 2.4063,0.1406 0.7968,0.125 1.4218,0.5469 0.625,0.4219 1.0313,1.1406 0.4219,0.7031 0.4219,1.5938 0,0.9531 -0.5157,1.75 -0.5,0.7968 -1.3906,1.1875 1.25,0.375 1.9063,1.25 0.6718,0.8593 0.6718,2.0468 0,0.9219 -0.4375,1.7969 -0.4218,0.875 -1.1718,1.4063 -0.75,0.5156 -1.8438,0.6406 -0.6875,0.078 -3.3125,0.094 l -4.625,0 0,-13.5937 z m 2.75,2.25 0,3.1562 1.7969,0 q 1.6094,0 2,-0.047 0.7031,-0.094 1.0937,-0.4844 0.4063,-0.4063 0.4063,-1.0625 0,-0.6406 -0.3438,-1.0313 -0.3437,-0.3906 -1.0312,-0.4843 -0.4063,-0.047 -2.3438,-0.047 l -1.5781,0 z m 0,5.4219 0,3.625 2.5469,0 q 1.4844,0 1.875,-0.078 0.6094,-0.1093 1,-0.5312 0.3906,-0.4375 0.3906,-1.1719 0,-0.6094 -0.2969,-1.0312 -0.2968,-0.4219 -0.8593,-0.6094 -0.5625,-0.2031 -2.4375,-0.2031 l -2.2188,0 z" />
        <path
           d="m 651.75158,-334.60865 2.6719,0.8438 q -0.6094,2.2187 -2.0469,3.3125 -1.4219,1.0781 -3.6094,1.0781 -2.7031,0 -4.4531,-1.8438 -1.7344,-1.8593 -1.7344,-5.0781 0,-3.3906 1.75,-5.2656 1.75,-1.875 4.6094,-1.875 2.5,0 4.0469,1.4687 0.9375,0.875 1.3906,2.5 l -2.7187,0.6563 q -0.2344,-1.0625 -1,-1.6719 -0.7657,-0.6094 -1.8594,-0.6094 -1.5156,0 -2.4531,1.0938 -0.9375,1.0781 -0.9375,3.5 0,2.5781 0.9218,3.6875 0.9219,1.0937 2.4063,1.0937 1.1094,0 1.8906,-0.6875 0.7813,-0.7031 1.125,-2.2031 z"
           id="path5139"
           inkscape:connector-curvature="0"
           style="fill:#000000;fill-rule:nonzero;stroke:none;stroke-linecap:square;stroke-miterlimit:10" />
      </g>
    </g>
    <g
       transform="translate(44,0)"
       id="g5184">
      <rect
         ry="11.984392"
         style="opacity:1;fill:#bfefb8;fill-opacity:1;stroke:#000000;stroke-width:2;stroke-linecap:round;stroke-linejoin:round;stroke-miterlimit:4;stroke-dasharray:none;stroke-dashoffset:0;stroke-opacity:1"
         id="rect5163"
         width="69.301079"
         height="34.911037"
         x="706.67053"
         y="-313.13803" />
      <g
         id="g5143"
         transform="translate(-10,40)">
        <path
           style="fill:#000000;fill-rule:nonzero;stroke:none;stroke-linecap:square;stroke-miterlimit:10"
           inkscape:connector-curvature="0"
           id="path5107"
           d="m 737.75158,-334.60865 2.6719,0.8438 q -0.6094,2.2187 -2.0469,3.3125 -1.4219,1.0781 -3.6094,1.0781 -2.7031,0 -4.4531,-1.8438 -1.7344,-1.8593 -1.7344,-5.0781 0,-3.3906 1.75,-5.2656 1.75,-1.875 4.6094,-1.875 2.5,0 4.0469,1.4687 0.9375,0.875 1.3906,2.5 l -2.7187,0.6563 q -0.2344,-1.0625 -1,-1.6719 -0.7657,-0.6094 -1.8594,-0.6094 -1.5156,0 -2.4531,1.0938 -0.9375,1.0781 -0.9375,3.5 0,2.5781 0.9218,3.6875 0.9219,1.0937 2.4063,1.0937 1.1094,0 1.8906,-0.6875 0.7813,-0.7031 1.125,-2.2031 z" />
        <path
           d="m 763.04838,-343.20235 5.0156,0 q 1.7031,0 2.5938,0.25 1.1875,0.3594 2.0468,1.2656 0.8594,0.8906 1.2969,2.2031 0.4531,1.2969 0.4531,3.2032 0,1.6875 -0.4218,2.8906 -0.5157,1.4844 -1.4532,2.4062 -0.7187,0.7032 -1.9375,1.0938 -0.9062,0.2812 -2.4218,0.2812 l -5.1719,0 0,-13.5937 z m 2.75,2.2969 0,9 2.0469,0 q 1.1406,0 1.6562,-0.125 0.6719,-0.1719 1.1094,-0.5625 0.4375,-0.4063 0.7187,-1.3125 0.2813,-0.9219 0.2813,-2.5 0,-1.5782 -0.2813,-2.4219 -0.2812,-0.8438 -0.7812,-1.3125 -0.5,-0.4688 -1.2656,-0.6406 -0.5782,-0.125 -2.25,-0.125 l -1.2344,0 z"
           id="path5141"
           inkscape:connector-curvature="0"
           style="fill:#000000;fill-rule:nonzero;stroke:none;stroke-linecap:square;stroke-miterlimit:10" />
      </g>
    </g>
  </g>
  <path
     style="fill:none;fill-rule:evenodd;stroke:#000000;stroke-width:1px;stroke-linecap:butt;stroke-linejoin:miter;stroke-opacity:1"
     d="m 148.90017,103.28995 c 0,27.61621 -15.4137,69.65976 -15.4137,90.58336"
     id="path5240"
     inkscape:connector-curvature="0"
     sodipodi:nodetypes="cc" />
  <path
     sodipodi:nodetypes="cc"
     inkscape:connector-curvature="0"
     id="path5242"
     d="m 268.90017,103.28995 c 0,27.61621 -135.25763,70.18082 -135.25763,91.10442"
     style="fill:none;fill-rule:evenodd;stroke:#000000;stroke-width:1px;stroke-linecap:butt;stroke-linejoin:miter;stroke-opacity:1" />
  <path
     style="fill:none;fill-rule:evenodd;stroke:#000000;stroke-width:1px;stroke-linecap:butt;stroke-linejoin:miter;stroke-opacity:1"
     d="m 402.90017,103.28995 c 0,27.61621 33.48175,69.1387 33.48175,90.0623"
     id="path5244"
     inkscape:connector-curvature="0"
     sodipodi:nodetypes="cc" />
  <path
     sodipodi:nodetypes="cc"
     inkscape:connector-curvature="0"
     id="path5246"
     d="m 522.90017,103.28995 c 0,27.61621 -85.84112,69.65976 -85.84112,90.58336"
     style="fill:none;fill-rule:evenodd;stroke:#000000;stroke-width:1px;stroke-linecap:butt;stroke-linejoin:miter;stroke-opacity:1" />
  <path
     sodipodi:nodetypes="cc"
     inkscape:connector-curvature="0"
     id="path5248"
     d="m 148.90017,103.28995 c 0,66.69575 386.7608,37.35401 387.28186,90.0623"
     style="fill:none;fill-rule:evenodd;stroke:#000000;stroke-width:1px;stroke-linecap:butt;stroke-linejoin:miter;stroke-opacity:1" />
  <path
     style="fill:none;fill-rule:evenodd;stroke:#000000;stroke-width:1px;stroke-linecap:butt;stroke-linejoin:miter;stroke-opacity:1"
     d="m 148.90017,103.28995 c 0,27.61621 86.62992,69.1387 86.62992,90.0623"
     id="path5250"
     inkscape:connector-curvature="0"
     sodipodi:nodetypes="cc" />
  <path
     sodipodi:nodetypes="cc"
     inkscape:connector-curvature="0"
     id="path5252"
     d="m 402.90017,103.28995 c 0,27.61621 -66.04082,70.18082 -66.04082,91.10442"
     style="fill:none;fill-rule:evenodd;stroke:#000000;stroke-width:1px;stroke-linecap:butt;stroke-linejoin:miter;stroke-opacity:1" />
  <path
     style="fill:none;fill-rule:evenodd;stroke:#000000;stroke-width:1px;stroke-linecap:butt;stroke-linejoin:miter;stroke-opacity:1"
     d="m 402.90017,103.28995 c 0,27.61621 -167.64762,69.65976 -167.64762,90.58336"
     id="path5254"
     inkscape:connector-curvature="0"
     sodipodi:nodetypes="cc" />
  <path
     style="fill:none;fill-rule:evenodd;stroke:#000000;stroke-width:1px;stroke-linecap:butt;stroke-linejoin:miter;stroke-opacity:1"
     d="m 522.90017,103.28995 c 0,27.61621 14.20251,69.1387 14.20251,90.0623"
     id="path5256"
     inkscape:connector-curvature="0"
     sodipodi:nodetypes="cc" />
  <path
     style="fill:none;fill-rule:evenodd;stroke:#000000;stroke-width:1px;stroke-linecap:butt;stroke-linejoin:miter;stroke-opacity:1"
     d="m 268.90017,103.28995 c 0,27.61621 67.35068,69.65976 67.35068,90.58336"
     id="path5258"
     inkscape:connector-curvature="0"
     sodipodi:nodetypes="cc" />
  <path
     sodipodi:nodetypes="cc"
     inkscape:connector-curvature="0"
     id="path5390"
     d="m 234.31047,228.70025 c 0,27.61621 208.67875,47.77522 208.67875,68.69882"
     style="fill:none;fill-rule:evenodd;stroke:#000000;stroke-width:1px;stroke-linecap:butt;stroke-linejoin:miter;stroke-opacity:1" />
  <g
     id="g5458"
     transform="translate(-347.67053,507.61357)">
    <path
       inkscape:transform-center-y="8.4671834"
       inkscape:transform-center-x="-0.015631479"
       d="m 542.75554,-203.43167 c 4.75623,-8.22431 61.62685,-8.18325 66.3712,0.0479 4.74434,8.23117 -23.72653,57.46205 -33.2271,57.45519 -9.50057,-0.007 -37.90033,-49.2788 -33.1441,-57.5031 z"
       inkscape:randomized="0"
       inkscape:rounded="0.143143"
       inkscape:flatsided="true"
       sodipodi:arg2="-1.5700744"
       sodipodi:arg1="-2.6172719"
       sodipodi:r2="19.159719"
       sodipodi:r1="38.319439"
       sodipodi:cy="-184.248"
       sodipodi:cx="575.92731"
       sodipodi:sides="3"
       id="path5262"
       style="opacity:1;fill:#e1ceed;fill-opacity:1;stroke:#000000;stroke-width:1.5340246;stroke-linecap:round;stroke-linejoin:round;stroke-miterlimit:4;stroke-dasharray:none;stroke-dashoffset:0;stroke-opacity:1"
       sodipodi:type="star" />
    <text
       sodipodi:linespacing="125%"
       id="text5392"
       y="-179.18182"
       x="577.60339"
       style="font-style:normal;font-variant:normal;font-weight:bold;font-stretch:normal;font-size:15px;line-height:125%;font-family:sans-serif;-inkscape-font-specification:'sans-serif, Bold';text-align:center;letter-spacing:0px;word-spacing:0px;writing-mode:lr;text-anchor:middle;fill:#000000;fill-opacity:1;stroke:none;stroke-width:1px;stroke-linecap:butt;stroke-linejoin:miter;stroke-opacity:1;"
       xml:space="preserve"><tspan
         style="font-weight:bold;-inkscape-font-specification:'sans-serif, Bold';font-family:sans-serif;font-style:normal;font-stretch:normal;font-variant:normal;font-size:15px;text-anchor:middle;text-align:center;writing-mode:lr;line-height:125%;"
         y="-179.18182"
         x="577.60339"
         id="tspan5394"
         sodipodi:role="line">P</tspan></text>
    <path
       sodipodi:type="star"
       style="opacity:1;fill:#e1ceed;fill-opacity:1;stroke:#000000;stroke-width:1.5340246;stroke-linecap:round;stroke-linejoin:round;stroke-miterlimit:4;stroke-dasharray:none;stroke-dashoffset:0;stroke-opacity:1"
       id="path5264"
       sodipodi:sides="3"
       sodipodi:cx="683.30902"
       sodipodi:cy="-184.248"
       sodipodi:r1="38.319439"
       sodipodi:r2="19.159719"
       sodipodi:arg1="-2.6172719"
       sodipodi:arg2="-1.5700744"
       inkscape:flatsided="true"
       inkscape:rounded="0.143143"
       inkscape:randomized="0"
       d="m 650.13725,-203.43167 c 4.75623,-8.22431 61.62686,-8.18325 66.3712,0.0479 4.74435,8.23117 -23.72652,57.46205 -33.22709,57.45519 -9.50058,-0.007 -37.90033,-49.2788 -33.14411,-57.5031 z"
       inkscape:transform-center-x="-0.015631479"
       inkscape:transform-center-y="8.4671834" />
    <text
       sodipodi:linespacing="125%"
       id="text5396"
       y="-179.18182"
       x="683.22583"
       style="font-style:normal;font-variant:normal;font-weight:bold;font-stretch:normal;font-size:15px;line-height:125%;font-family:sans-serif;-inkscape-font-specification:'sans-serif, Bold';text-align:center;letter-spacing:0px;word-spacing:0px;writing-mode:lr;text-anchor:middle;fill:#000000;fill-opacity:1;stroke:none;stroke-width:1px;stroke-linecap:butt;stroke-linejoin:miter;stroke-opacity:1;"
       xml:space="preserve"><tspan
         style="font-weight:bold;-inkscape-font-specification:'sans-serif, Bold';font-family:sans-serif;font-style:normal;font-stretch:normal;font-variant:normal;font-size:15px;text-anchor:middle;text-align:center;writing-mode:lr;line-height:125%;"
         y="-179.18182"
         x="683.22583"
         id="tspan5398"
         sodipodi:role="line">LCP</tspan></text>
    <path
       inkscape:transform-center-y="8.4671834"
       inkscape:transform-center-x="-0.015631479"
       d="m 757.51903,-203.43167 c 4.75623,-8.22431 61.62685,-8.18325 66.3712,0.0479 4.74434,8.23117 -23.72653,57.46205 -33.2271,57.45519 -9.50057,-0.007 -37.90033,-49.2788 -33.1441,-57.5031 z"
       inkscape:randomized="0"
       inkscape:rounded="0.143143"
       inkscape:flatsided="true"
       sodipodi:arg2="-1.5700744"
       sodipodi:arg1="-2.6172719"
       sodipodi:r2="19.159719"
       sodipodi:r1="38.319439"
       sodipodi:cy="-184.248"
       sodipodi:cx="790.6908"
       sodipodi:sides="3"
       id="path5266"
       style="opacity:1;fill:#e1ceed;fill-opacity:1;stroke:#000000;stroke-width:1.5340246;stroke-linecap:round;stroke-linejoin:round;stroke-miterlimit:4;stroke-dasharray:none;stroke-dashoffset:0;stroke-opacity:1"
       sodipodi:type="star" />
    <text
       sodipodi:linespacing="125%"
       id="text5400"
       y="-179.18182"
       x="791.50659"
       style="font-style:normal;font-variant:normal;font-weight:bold;font-stretch:normal;font-size:15px;line-height:125%;font-family:sans-serif;-inkscape-font-specification:'sans-serif, Bold';text-align:center;letter-spacing:0px;word-spacing:0px;writing-mode:lr;text-anchor:middle;fill:#000000;fill-opacity:1;stroke:none;stroke-width:1px;stroke-linecap:butt;stroke-linejoin:miter;stroke-opacity:1;"
       xml:space="preserve"><tspan
         style="font-weight:bold;-inkscape-font-specification:'sans-serif, Bold';font-family:sans-serif;font-style:normal;font-stretch:normal;font-variant:normal;font-size:15px;text-anchor:middle;text-align:center;writing-mode:lr;line-height:125%;"
         y="-179.18182"
         x="791.50659"
         id="tspan5402"
         sodipodi:role="line">PBD</tspan></text>
  </g>
  <path
     style="fill:none;fill-rule:evenodd;stroke:#000000;stroke-width:1px;stroke-linecap:butt;stroke-linejoin:miter;stroke-opacity:1"
     d="m 134.31047,228.70025 c 0,27.61621 95.5722,47.77522 95.5722,68.69882"
     id="path5404"
     inkscape:connector-curvature="0"
     sodipodi:nodetypes="cc" />
  <path
     style="fill:none;fill-rule:evenodd;stroke:#000000;stroke-width:1px;stroke-linecap:butt;stroke-linejoin:miter;stroke-opacity:1"
     d="m 234.31047,228.70025 c 0,27.61621 -4.51394,47.42167 -4.51394,68.34527"
     id="path5406"
     inkscape:connector-curvature="0"
     sodipodi:nodetypes="cc" />
  <path
     style="fill:none;fill-rule:evenodd;stroke:#000000;stroke-width:1px;stroke-linecap:butt;stroke-linejoin:miter;stroke-opacity:1"
     d="m 334.31047,228.70025 c 0,27.61621 108.62314,47.77522 108.62314,68.69882"
     id="path5408"
     inkscape:connector-curvature="0"
     sodipodi:nodetypes="cc" />
  <path
     sodipodi:nodetypes="cc"
     inkscape:connector-curvature="0"
     id="path5410"
     d="m 436.31047,228.70025 c 0,27.61621 -101.74113,47.77522 -101.74113,68.69882"
     style="fill:none;fill-rule:evenodd;stroke:#000000;stroke-width:1px;stroke-linecap:butt;stroke-linejoin:miter;stroke-opacity:1" />
  <path
     sodipodi:nodetypes="cc"
     inkscape:connector-curvature="0"
     id="path5412"
     d="m 436.4874,229.40736 c 0,27.61621 6.44621,47.06811 6.44621,67.99171"
     style="fill:none;fill-rule:evenodd;stroke:#000000;stroke-width:1px;stroke-linecap:butt;stroke-linejoin:miter;stroke-opacity:1" />
  <path
     style="fill:none;fill-rule:evenodd;stroke:#000000;stroke-width:1px;stroke-linecap:butt;stroke-linejoin:miter;stroke-opacity:1"
     d="m 537.25012,229.40736 c 0,27.61621 -202.8574,46.361 -202.8574,67.2846"
     id="path5414"
     inkscape:connector-curvature="0"
     sodipodi:nodetypes="cc" />
  <g
     id="g4282">
    <g
       id="g4272">
      <path
         sodipodi:type="star"
         style="opacity:1;fill:#9cd3ff;fill-opacity:1;stroke:#000000;stroke-width:2;stroke-linecap:round;stroke-linejoin:round;stroke-miterlimit:4;stroke-dasharray:none;stroke-dashoffset:0;stroke-opacity:1"
         id="path5418"
         sodipodi:sides="4"
         sodipodi:cx="275.65051"
         sodipodi:cy="451.61356"
         sodipodi:r1="46.690472"
         sodipodi:r2="33.015148"
         sodipodi:arg1="-2.3561945"
         sodipodi:arg2="-1.5707963"
         inkscape:flatsided="true"
         inkscape:rounded="0.143143"
         inkscape:randomized="0"
         d="m 242.63536,418.59841 c 6.68342,-6.68342 59.34689,-6.68342 66.0303,0 6.68342,6.68341 6.68342,59.34688 0,66.03029 -6.68341,6.68342 -59.34688,6.68342 -66.0303,1e-5 -6.68341,-6.68342 -6.68341,-59.34689 0,-66.0303 z" />
      <text
         sodipodi:linespacing="125%"
         id="text5422"
         y="454.43173"
         x="274.87634"
         style="font-style:normal;font-variant:normal;font-weight:bold;font-stretch:normal;font-size:15px;line-height:125%;font-family:sans-serif;-inkscape-font-specification:'sans-serif, Bold';text-align:center;letter-spacing:0px;word-spacing:0px;writing-mode:lr;text-anchor:middle;fill:#000000;fill-opacity:1;stroke:none;stroke-width:1px;stroke-linecap:butt;stroke-linejoin:miter;stroke-opacity:1;"
         xml:space="preserve"><tspan
           style="font-style:normal;font-variant:normal;font-weight:bold;font-stretch:normal;font-size:15px;line-height:125%;font-family:sans-serif;-inkscape-font-specification:'sans-serif, Bold';text-align:center;writing-mode:lr;text-anchor:middle;"
           y="454.43173"
           x="274.87634"
           id="tspan5424"
           sodipodi:role="line">LCP</tspan></text>
    </g>
    <g
       id="g4277">
      <path
         d="m 362.63539,418.59841 c 6.68342,-6.68342 59.34689,-6.68342 66.0303,0 6.68342,6.68341 6.68342,59.34688 0,66.03029 -6.68341,6.68342 -59.34688,6.68342 -66.0303,1e-5 -6.68341,-6.68342 -6.68341,-59.34689 0,-66.0303 z"
         inkscape:randomized="0"
         inkscape:rounded="0.143143"
         inkscape:flatsided="true"
         sodipodi:arg2="-1.5707963"
         sodipodi:arg1="-2.3561945"
         sodipodi:r2="33.015148"
         sodipodi:r1="46.690472"
         sodipodi:cy="451.61357"
         sodipodi:cx="395.65054"
         sodipodi:sides="4"
         id="path5420"
         style="opacity:1;fill:#9cd3ff;fill-opacity:1;stroke:#000000;stroke-width:2;stroke-linecap:round;stroke-linejoin:round;stroke-miterlimit:4;stroke-dasharray:none;stroke-dashoffset:0;stroke-opacity:1"
         sodipodi:type="star" />
      <text
         xml:space="preserve"
         style="font-style:normal;font-variant:normal;font-weight:bold;font-stretch:normal;font-size:15px;line-height:125%;font-family:sans-serif;-inkscape-font-specification:'sans-serif, Bold';text-align:center;letter-spacing:0px;word-spacing:0px;writing-mode:lr;text-anchor:middle;fill:#000000;fill-opacity:1;stroke:none;stroke-width:1px;stroke-linecap:butt;stroke-linejoin:miter;stroke-opacity:1;"
         x="394.87637"
         y="454.43173"
         id="text5426"
         sodipodi:linespacing="125%"><tspan
           sodipodi:role="line"
           id="tspan5428"
           x="394.87637"
           y="454.43173"
           style="font-weight:bold;-inkscape-font-specification:'sans-serif, Bold';font-family:sans-serif;font-style:normal;font-stretch:normal;font-variant:normal;font-size:15px;text-anchor:middle;text-align:center;writing-mode:lr;line-height:125%;">NLGS</tspan></text>
    </g>
  </g>
  <path
     sodipodi:nodetypes="cc"
     inkscape:connector-curvature="0"
     id="path5634"
     d="m 228.65362,361.62918 c 0,27.61621 46.39774,30.80466 46.39774,51.72826"
     style="fill:none;fill-rule:evenodd;stroke:#000000;stroke-width:1px;stroke-linecap:butt;stroke-linejoin:miter;stroke-opacity:1" />
  <path
     style="fill:none;fill-rule:evenodd;stroke:#000000;stroke-width:1px;stroke-linecap:butt;stroke-linejoin:miter;stroke-opacity:1"
     d="m 334.65362,361.62918 c 0,27.61621 61.60054,31.15821 61.60054,52.08181"
     id="path5636"
     inkscape:connector-curvature="0"
     sodipodi:nodetypes="cc" />
  <path
     sodipodi:nodetypes="cc"
     inkscape:connector-curvature="0"
     id="path5638"
     d="m 335.05136,361.62918 c 0,27.61621 -60.18632,30.45111 -60.18632,51.37471"
     style="fill:none;fill-rule:evenodd;stroke:#000000;stroke-width:1px;stroke-linecap:butt;stroke-linejoin:miter;stroke-opacity:1" />
  <path
     style="fill:none;fill-rule:evenodd;stroke:#000000;stroke-width:1px;stroke-linecap:butt;stroke-linejoin:miter;stroke-opacity:1"
     d="m 443.05136,361.62918 c 0,27.61621 -46.39774,30.80466 -46.39774,51.72826"
     id="path5640"
     inkscape:connector-curvature="0"
     sodipodi:nodetypes="cc" />
  <text
     xml:space="preserve"
     style="font-style:normal;font-variant:normal;font-weight:bold;font-stretch:normal;font-size:15px;line-height:125%;font-family:sans-serif;-inkscape-font-specification:'sans-serif, Bold';text-align:center;letter-spacing:0px;word-spacing:0px;writing-mode:lr;text-anchor:middle;fill:#000000;fill-opacity:1;stroke:none;stroke-width:1px;stroke-linecap:butt;stroke-linejoin:miter;stroke-opacity:1;"
     x="714.87634"
     y="454.43176"
     id="text5653"
     sodipodi:linespacing="125%"><tspan
       sodipodi:role="line"
       id="tspan5655"
       x="714.87634"
       y="454.43176"
       style="font-weight:bold;-inkscape-font-specification:'sans-serif, Bold';font-family:sans-serif;font-style:normal;font-stretch:normal;font-variant:normal;font-size:15px;text-anchor:middle;text-align:center;writing-mode:lr;line-height:125%;">Solvers</tspan></text>
  <text
     sodipodi:linespacing="125%"
     id="text5672"
     y="324.43176"
     x="714.87634"
     style="font-style:normal;font-variant:normal;font-weight:bold;font-stretch:normal;font-size:15px;line-height:125%;font-family:sans-serif;-inkscape-font-specification:'sans-serif, Bold';text-align:center;letter-spacing:0px;word-spacing:0px;writing-mode:lr;text-anchor:middle;fill:#000000;fill-opacity:1;stroke:none;stroke-width:1px;stroke-linecap:butt;stroke-linejoin:miter;stroke-opacity:1;"
     xml:space="preserve"><tspan
       style="font-weight:bold;-inkscape-font-specification:'sans-serif, Bold';font-family:sans-serif;font-style:normal;font-stretch:normal;font-variant:normal;font-size:15px;text-anchor:middle;text-align:center;writing-mode:lr;line-height:125%;"
       y="324.43176"
       x="714.87634"
       id="tspan5674"
       sodipodi:role="line">Collision</tspan><tspan
       style="font-weight:bold;-inkscape-font-specification:'sans-serif, Bold';font-family:sans-serif;font-style:normal;font-stretch:normal;font-variant:normal;font-size:15px;text-anchor:middle;text-align:center;writing-mode:lr;line-height:125%;"
       y="343.18176"
       x="714.87634"
       sodipodi:role="line"
       id="tspan5686">Responders</tspan></text>
  <text
     xml:space="preserve"
     style="font-style:normal;font-variant:normal;font-weight:bold;font-stretch:normal;font-size:15px;line-height:125%;font-family:sans-serif;-inkscape-font-specification:'sans-serif, Bold';text-align:center;letter-spacing:0px;word-spacing:0px;writing-mode:lr;text-anchor:middle;fill:#000000;fill-opacity:1;stroke:none;stroke-width:1px;stroke-linecap:butt;stroke-linejoin:miter;stroke-opacity:1;"
     x="714.87634"
     y="216.43175"
     id="text5676"
     sodipodi:linespacing="125%"><tspan
       sodipodi:role="line"
       id="tspan5678"
       x="714.87634"
       y="216.43175"
       style="font-weight:bold;-inkscape-font-specification:'sans-serif, Bold';font-family:sans-serif;font-style:normal;font-stretch:normal;font-variant:normal;font-size:15px;text-anchor:middle;text-align:center;writing-mode:lr;line-height:125%;">Collision</tspan><tspan
       sodipodi:role="line"
       x="714.87634"
       y="235.18175"
       style="font-weight:bold;-inkscape-font-specification:'sans-serif, Bold';font-family:sans-serif;font-style:normal;font-stretch:normal;font-variant:normal;font-size:15px;text-anchor:middle;text-align:center;writing-mode:lr;line-height:125%;"
       id="tspan5684">Detectors</tspan></text>
  <text
     sodipodi:linespacing="125%"
     id="text5680"
     y="74.431755"
     x="714.87634"
     style="font-style:normal;font-variant:normal;font-weight:bold;font-stretch:normal;font-size:15px;line-height:125%;font-family:sans-serif;-inkscape-font-specification:'sans-serif, Bold';text-align:center;letter-spacing:0px;word-spacing:0px;writing-mode:lr;text-anchor:middle;fill:#000000;fill-opacity:1;stroke:none;stroke-width:1px;stroke-linecap:butt;stroke-linejoin:miter;stroke-opacity:1;"
     xml:space="preserve"><tspan
       style="font-weight:bold;-inkscape-font-specification:'sans-serif, Bold';font-family:sans-serif;font-style:normal;font-stretch:normal;font-variant:normal;font-size:15px;text-anchor:middle;text-align:center;writing-mode:lr;line-height:125%;"
       y="74.431755"
       x="714.87634"
       id="tspan5682"
       sodipodi:role="line">Solvers</tspan></text>
  <text
     xml:space="preserve"
     style="font-style:normal;font-variant:normal;font-weight:normal;font-stretch:normal;font-size:15px;line-height:125%;font-family:sans-serif;-inkscape-font-specification:'sans-serif, Normal';text-align:center;letter-spacing:0px;word-spacing:0px;writing-mode:lr;text-anchor:middle;fill:#000000;fill-opacity:1;stroke:none;stroke-width:1px;stroke-linecap:butt;stroke-linejoin:miter;stroke-opacity:1;"
     x="594.87634"
     y="384.43176"
     id="text5692"
     sodipodi:linespacing="125%"><tspan
       id="tspan5696"
       sodipodi:role="line"
       x="594.87634"
       y="384.43176"
       style="font-weight:normal;-inkscape-font-specification:'sans-serif, Normal';font-family:sans-serif;font-style:normal;font-stretch:normal;font-variant:normal;font-size:15px;text-anchor:middle;text-align:center;writing-mode:lr;line-height:125%;">Equation</tspan><tspan
       sodipodi:role="line"
       x="594.87634"
       y="403.18176"
       style="font-weight:normal;-inkscape-font-specification:'sans-serif, Normal';font-family:sans-serif;font-style:normal;font-stretch:normal;font-variant:normal;font-size:15px;text-anchor:middle;text-align:center;writing-mode:lr;line-height:125%;"
       id="tspan5793">Assembly</tspan></text>
  <text
     sodipodi:linespacing="125%"
     id="text5698"
     y="262.43176"
     x="594.87634"
     style="font-style:normal;font-variant:normal;font-weight:normal;font-stretch:normal;font-size:15px;line-height:125%;font-family:sans-serif;-inkscape-font-specification:'sans-serif, Normal';text-align:center;letter-spacing:0px;word-spacing:0px;writing-mode:lr;text-anchor:middle;fill:#000000;fill-opacity:1;stroke:none;stroke-width:1px;stroke-linecap:butt;stroke-linejoin:miter;stroke-opacity:1;"
     xml:space="preserve"><tspan
       style="font-weight:normal;-inkscape-font-specification:'sans-serif, Normal';font-family:sans-serif;font-style:normal;font-stretch:normal;font-variant:normal;font-size:15px;text-anchor:middle;text-align:center;writing-mode:lr;line-height:125%;"
       y="262.43176"
       x="594.87634"
       id="tspan5700"
       sodipodi:role="line">Collision</tspan><tspan
       id="tspan5702"
       style="font-weight:normal;-inkscape-font-specification:'sans-serif, Normal';font-family:sans-serif;font-style:normal;font-stretch:normal;font-variant:normal;font-size:15px;text-anchor:middle;text-align:center;writing-mode:lr;line-height:125%;"
       y="281.18176"
       x="594.87634"
       sodipodi:role="line">Aggregation</tspan></text>
  <text
     xml:space="preserve"
     style="font-style:normal;font-variant:normal;font-weight:normal;font-stretch:normal;font-size:15px;line-height:125%;font-family:sans-serif;-inkscape-font-specification:'sans-serif, Normal';text-align:center;letter-spacing:0px;word-spacing:0px;writing-mode:lr;text-anchor:middle;fill:#000000;fill-opacity:1;stroke:none;stroke-width:1px;stroke-linecap:butt;stroke-linejoin:miter;stroke-opacity:1;"
     x="594.87634"
     y="134.43175"
     id="text5704"
     sodipodi:linespacing="125%"><tspan
       sodipodi:role="line"
       id="tspan5706"
       x="594.87634"
       y="134.43175"
       style="font-weight:normal;-inkscape-font-specification:'sans-serif, Normal';font-family:sans-serif;font-style:normal;font-stretch:normal;font-variant:normal;font-size:15px;text-anchor:middle;text-align:center;writing-mode:lr;line-height:125%;">Collision</tspan><tspan
       sodipodi:role="line"
       x="594.87634"
       y="153.18175"
       style="font-weight:normal;-inkscape-font-specification:'sans-serif, Normal';font-family:sans-serif;font-style:normal;font-stretch:normal;font-variant:normal;font-size:15px;text-anchor:middle;text-align:center;writing-mode:lr;line-height:125%;"
       id="tspan5789">Pairs</tspan></text>
</svg>
